<svg version="1.2" xmlns="http://www.w3.org/2000/svg" viewBox="0 0 296 300" width="296" height="300">
	<title>country (1)</title>
	<style>
		tspan { white-space:pre } 
		.s0 { fill: none } 
		.s1 { fill: #4da8f6;stroke: #ffffff;stroke-linejoin: round;stroke-width: 1.7 } 
		.s2 { fill: none;stroke: #000000 } 
		.s3 { opacity: .8;fill: #ff0067;stroke: #ffffff;stroke-width: 1.8 } 
	</style>
	<path fill-rule="evenodd" class="s0" d="m-1595.2-460h4518v1500h-4518z"/>
	<path class="s1" d="m77 107.2l0.3 1.1 0.2 0.3 0.2 0.1 0.5 0.2 0.4 0.3 0.3 0.1 0.3 0.1 0.3-0.1h0.2l0.1-0.1h0.1l0.6-0.8 0.6-0.5 0.1-0.1 0.1-0.1 0.2-0.6 0.2-0.4 3-2.6 0.1-0.3v-0.1l0.2-0.7 0.4-0.6 0.1-0.2 0.2-0.2 1-0.7 0.1-0.2 0.2-0.2v-0.1l0.1-0.5 0.5-0.7 0.2-0.3 1.5-0.2 1.1-0.2 0.4-0.2 0.3-0.2 0.5-0.5 0.1-0.3 0.2-0.3 0.1-0.3 0.3-1.1v-0.4-0.4-0.3l0.1-1.6 0.3-0.6 0.2-0.3 0.3-0.4 0.1-0.2 0.2-0.1 0.1 0.1 0.2 0.2 0.3-0.1 0.2-0.1 0.6-0.5 0.2-0.5 0.3-0.6 0.1-0.6v-0.1-0.3l0.1-0.7v-0.3-0.2l-0.1-0.1-0.1-0.1-0.1-0.1h-0.2v-0.1h-0.2v-0.2l-0.1-0.4v-0.2l0.1-0.1 0.3-0.3 0.4-0.4 0.2-0.2 0.5-0.4 0.1-0.1 0.1-0.2 0.5-2.4 0.1-0.2-0.1-0.2v-0.1l-0.1-0.1-0.4-0.1-0.1-0.1-0.2-0.3-0.1-0.2v-0.1l-0.2-0.7 0.1-0.1 0.1-0.1v-0.1h0.2 0.3l0.4 0.5 0.4 1 0.3 0.3 0.4 0.2 0.8-0.1 0.4 0.1 1 0.7 0.7 0.9 0.7 1 0.5 1.1 0.6 0.3 1.2-0.4 2-1.1 0.6-0.7 0.6-0.7 0.3-0.8 0.1-1 0.6-1.9 1.2-0.6 1.7-0.3 1.6-0.8 1.5-1 4.4-1.7 1.5-0.6 1-0.2 0.9 0.2 0.6 0.9 0.3 0.5 0.2 0.3 0.3 0.2 0.5 0.1 0.3 0.1 0.1 0.4-0.1 0.4v0.4l0.8 1.9 0.6 0.7 0.9 0.2 0.4-0.2h0.1v0.2 2.2l-0.2 0.6-0.1 0.1-0.5 0.3-0.2 0.3-0.3 0.4-0.1 0.2v0.2 0.4 0.1 0.4 0.6 0.2l0.1 0.2 0.1 0.1 0.1 0.1 0.3 0.3 0.1 0.1 0.1 0.2 0.1 0.6v0.2 0.2l-0.2 0.5-0.2 0.5-0.3 0.8v0.2 0.2l0.2 0.1h0.1 0.3 0.2l0.1 0.1 0.3 0.2h0.1 0.2 0.2l0.2-0.2h0.2 0.1l0.3 0.2h0.2 0.1 0.2l0.1 0.1 0.2 0.4 0.1 0.3 0.1 0.2v0.2l-0.1 0.2v0.1l-0.2 0.4-0.1 0.3v0.4l0.2 0.4 0.1 0.3-0.1 0.2-0.1 0.4-0.1 1.2 0.3 0.6-0.1 0.2-0.1 0.3-0.1 0.1-0.5 0.3-0.2 0.1-0.2 0.1h-0.1-0.1l-0.2-0.1h-0.2-0.2-0.2l-0.3 0.2-0.2 0.1-0.3 0.4h-0.1-0.1l-0.5-0.3-0.3-0.2h-0.3l-0.4-0.1h-0.1l-0.2-0.1-0.2-0.3-0.3-0.1h-0.1l-0.2 0.1v0.1l-0.1 0.1-0.3 0.2-0.6 0.4-0.1 0.2-0.2 0.2v0.2l0.1 0.1v0.2l-0.1 0.3-0.2 0.1-0.6 0.6-0.2 0.2-0.1 0.3-0.2 0.2-0.1 0.1h-0.2-0.2-0.3l-0.1 0.1-0.1 0.1v0.4l-0.1 0.2-0.2 0.5v0.1 0.8 0.1l-0.2 0.2-0.6 0.8-0.1 0.3v0.1l-0.1 0.6v0.4l-0.1 0.4-0.1 0.2v0.2l0.1 0.4v0.1l-0.1 0.2v0.2l-0.2 0.3v0.2 0.1 0.2 0.3l-0.1 0.3-0.5 0.9-0.1 0.1v0.4 0.4l-0.1 0.6-0.1 0.2-0.2 0.2-0.1 0.2v0.2 0.4l-0.1 0.3-0.1 0.2v0.2l-0.8 0.5 0.4 0.8 0.4 0.3 0.1 0.3 0.3 1.7v0.2 0.3l-0.4 1.2-0.1 0.2-0.2 0.2h-0.4-0.1l-0.3 0.1h-0.1l-0.1 0.1-0.3 0.4-0.2 0.2v0.2 0.1l0.3 0.7 0.1 0.4v0.1l-0.1 0.2-0.1 0.1-0.1 0.2-0.1 0.3-0.1 0.4-0.1 0.2-0.2 0.1-0.2 0.1h-0.2l-0.2 0.2v0.1 0.1 0.2 0.1l0.1 0.5v0.5l-0.1 0.3v0.1h-0.1-0.2-0.1-0.2-0.1l-0.2 0.1-0.2 0.1-0.1 0.1-0.6 0.7 0.9 1.2 0.2 0.6 0.4 1.1-0.6 1.7v0.7 0.3l0.2 0.9 0.1 0.1 0.5 0.5 0.1 0.4v0.2 0.2h-0.1l-0.2 0.1-0.1 0.1-0.4 0.8-0.1 0.4v0.1l-0.2 0.2-0.1 0.1-0.3 0.3-0.4 0.6 0.6 0.4 0.4 0.6 0.2 0.2 0.2 0.1 0.3-0.1 2 0.5 0.4 0.1 0.2 0.1 0.1 0.1 0.1 0.2v0.2 0.1l-0.2 0.2v0.1l-0.2 0.4-0.1 0.2h-0.1l-0.1 0.2 0.1 0.2 0.2 0.2 0.3 0.2 0.2 0.1 0.1 0.4v1.7l0.3 0.6 0.1 0.1 0.3 0.2v0.2 0.2l-0.1 0.2v0.2l-0.1 0.5v0.2l0.1 0.2 0.2 0.1 0.3 0.1 0.7 0.1 0.1 0.1 0.3 0.1 0.3 0.2v0.1 0.1l-0.2 0.2v0.3 0.5l0.3 1 0.2 0.6 0.1 0.3h0.1l0.4-0.2 0.1-0.1 0.2 0.1 0.2 0.2h0.2l0.4 0.4 1.1 1.5-0.9 2.5-0.1 0.7v0.1 0.1l0.4 0.4 0.1 0.4 0.3 3.1 0.2 0.7 0.1 0.2 0.4 0.4 0.1 0.4 0.1 0.3v0.4l-0.2 1.8v0.4l0.1 0.2 0.2 0.1h0.2l0.3 0.1 0.4 0.7-0.7 0.1-0.1 0.1-0.2 0.2-0.2 0.3-1.4 1.9-1 0.8-0.3 0.4-0.4 0.1h-0.2l-0.2 0.1-0.2-0.1h-0.1-0.1v-0.1l-0.3-0.5v-0.1l-0.2-0.1-0.2-0.1-0.2-0.1h-0.1l-0.1-0.1-0.1-0.1-0.1-0.1v-0.1l-0.4-0.1-0.1-0.1-0.1-0.1-0.1-0.1-0.2-0.5v-0.1l-0.3-0.5h-0.1-0.2l-0.1-0.1-0.5-0.1-0.3-0.1-0.3-0.1-0.1-0.1-0.1-0.1-0.2-0.2h-0.1l-0.1-0.1h-0.1l-0.1-0.1-0.1-0.2-0.1-0.1v-0.2-0.2l-0.2-0.1-0.5-0.1-0.3-0.1-0.6 0.1-0.3 0.1h-0.1-0.1l-0.1 0.1-0.1 0.2v0.2l-0.2 0.3v0.1h-0.1l0.1 0.2 0.1 0.1 0.3 0.3v0.1l0.2 0.5 0.2 0.8 0.1 0.8-0.4 0.5-0.9 0.5-0.4 0.1-1.1 0.3h-0.6l-0.2-0.1h-0.1l-0.2-0.1v-0.1l-0.1-0.1-0.1-0.3v-0.1-0.2-0.2-0.2-0.4l-0.4-0.3-0.3 0.1-0.6 0.3h-0.1l-0.2-0.1-0.2-0.3-0.2-0.2h-0.2-0.1l-0.4 0.2-0.2 0.1h-0.2l-0.1-0.1-0.3-0.4-0.2-0.2-0.1-0.2h-0.1l-0.1 0.2-0.1 0.1h-0.1-0.2l-0.1-0.1v-0.1-0.3l-0.1-0.2-0.3-0.2h-0.1-0.2v0.2 0.1l-0.2 0.1-0.4 0.4-0.3-0.1-0.3-0.1h-0.1-0.1l-0.4 0.3h-0.1v-0.1l0.1-0.3v-0.1-0.2l0.1-0.1h0.2l0.3 0.1h0.2l0.1-0.1v-0.2l-0.1-0.1-0.2-0.2-0.1-0.1v-0.1-0.3-0.1h-0.1-0.2l-0.1 0.1v0.2h-0.1-0.2l-0.2 0.2v0.1l-0.2 0.3-0.2 0.1-0.1-0.1v-0.1-0.1-0.2l-0.1-0.2 0.1-0.6-0.1-0.2h-0.2-0.1l-0.3 0.1h-0.4l-0.2-0.1-0.1-0.1v-0.2l-0.1-0.2h-0.2-0.2-0.1l-0.2 0.1-0.1 0.1h-0.3-0.1l-0.1 0.1-0.1 0.1h-0.1v0.2l-0.1 0.3v0.1l-0.2 0.1-0.2 0.1h-0.2l-0.2-0.1-0.1-0.1v-0.2-0.1-0.2l0.1-0.2 0.1-0.3 0.2-0.2 0.1-0.1-0.1-0.2-0.2-0.2-1.1-0.7v-0.1h-0.1v-0.2l0.1-0.1v-0.2l0.1-0.1v-0.2l-0.2-0.2-0.1-0.1h-0.1l-0.4 0.1-1.2 0.2-1.5 0.2-0.7 0.2-0.2 0.1 0.1-0.1 0.1-0.3-0.5-0.2-0.9 0.2-0.4 0.1-0.3 0.2-0.5 0.2-1-0.3-1-0.5-0.6-0.4-0.5-0.6-0.2-0.7-0.2-0.8 0.1-2.1 0.2-0.7 0.5-0.3 2.6 0.1 0.9-0.1 0.6-0.8 0.7-0.3 0.9-0.1 0.6 0.1-0.3-0.9-1 0.1-1 0.5-0.5 0.3-1-0.1-0.2-0.6 0.1-1v-1.1l-0.5-0.7-2.1-1.4-0.7-0.6-0.8-0.7-1-0.2-0.9 0.7-0.4-0.9-0.4-1.4-0.2-1.2 0.3-0.6-0.6-0.2-0.2-0.5-0.1-0.6-0.2-0.7-0.5-0.5-0.3-0.1-0.2-0.2 0.2-0.9 0.3-1.1 0.2-0.6v-0.7l0.2-0.7 0.8-0.5 0.2-0.5 0.1-1.2 0.8-2.8 0.6-1.1-0.7 0.3-0.8-0.3-0.6-0.5-0.3-0.9 0.2-0.8 0.3-0.7 0.6-0.5 0.7 0.5 0.3-0.6 0.3-0.5 0.4-0.3 0.4-0.3-1-0.2-0.9 0.3-0.7 0.1-0.2-1.2-0.2-2.1 0.3-0.5 1.3-0.1v-0.4h-0.3l-0.6-0.3 0.4-0.5-0.1-0.3-0.8-0.3h-0.5l-0.3 0.1h-0.1l-0.3-0.7v-0.5l0.3-0.7v-0.5l-0.3-0.2h-0.4l-0.3-0.1-0.1-0.6-0.5 0.3-0.4 0.1h-1l-0.5-0.2 0.2-0.4 0.5-0.3h0.1v-0.6l-0.1-0.2-0.3-0.1-0.5-0.4-0.4-0.3-0.5 0.1-0.4 0.3-0.3 0.4-0.5-0.7-0.2-0.5-0.2-0.6-0.3-0.6-1-1.2-0.2-0.9-0.7-1.4-0.3-0.6-0.3-1v-0.3h0.2l0.2 0.1 0.1-0.2 0.5-0.5 0.4-0.3 0.2-0.3v0.1l3.2-0.8h0.4z"/>
	<path class="s1" d="m71.7 48.6v0.6 0.1 0.4l-0.5 1.9-0.1 0.2-0.2 0.2-1 0.6-0.4 0.4-4.6 5.2v0.1l-0.1 0.2-0.1 0.4-0.2 0.6-0.3 0.3-0.9-1.2-1-1.9-0.7-1.9-0.2-1.8-0.1-0.9 0.3-0.6 0.4-0.9 0.2-1.1-0.1-0.3-0.1-0.8v-0.3l0.3-0.5 0.3-0.3 0.3-0.4-0.1-0.5-0.3-1-0.1-0.8 0.3-1.7 0.1-0.9 0.1-0.5 0.3-0.4 0.6-0.2 0.4 0.3v0.1l0.2 0.3 0.4 0.1h0.6l0.7-0.4h0.3 0.6l0.4 0.2 0.3 0.2 1.5 4.7 0.5 0.9 0.8 0.7z"/>
	<path class="s1" d="m64.2 59.8l0.3-0.3 0.2-0.6 0.1-0.4 0.1-0.2v-0.1l4.6-5.2 0.4-0.4 1-0.6 0.2-0.2 0.1-0.2 0.5-1.9v-0.4-0.1-0.6l0.4 0.2 1 0.3 0.6 0.1 1.1-0.2 0.7 0.2 1.3 0.9 0.7 0.4 2.6 0.7 1.5 0.7 0.7 0.1h0.7l2.8-2h0.7l0.1 0.2-0.1 1 0.2 0.4 0.3 0.2 0.4 0.1h0.4l0.5 0.1 1 0.5 0.3 0.8 0.1 2 0.1 0.5 0.2 0.5 0.5 0.8 0.1 0.4-0.1 0.3-0.1 0.4v0.1l-0.1 0.3 0.1 1.2 0.1 0.4 0.3 0.6h0.2l0.2-0.3 0.5-0.1 0.6 0.1 1.7 0.3 0.8-0.2 1.1-1.1 0.8-0.2 1.3 1.1 0.8 0.2 1.9-0.4 0.5 0.2 0.3 0.5 0.1 0.9-0.1 1-0.4 0.4-0.5 0.2-0.6 0.8-0.1 0.9 0.8 0.6 0.7 0.6 0.3 0.8-0.2 1.7-0.1 2.4-0.3 1.4-0.1 0.8-0.2 0.7-0.9 0.4-0.8 0.1-0.7 0.4-1.7 3.5-0.3 0.5-0.1 0.5 0.1 0.5 0.2 0.3h-0.3-0.2v0.1l-0.1 0.1-0.1 0.1 0.2 0.7v0.1l0.1 0.2 0.2 0.3 0.1 0.1 0.4 0.1 0.1 0.1v0.1l0.1 0.2-0.1 0.2-0.5 2.4-0.1 0.2-0.1 0.1-0.5 0.4-0.2 0.2-0.4 0.4-0.3 0.3-0.1 0.1v0.2l0.1 0.4v0.2h0.2v0.1h0.2l0.1 0.1 0.1 0.1 0.1 0.1v0.2 0.3l-0.1 0.7v0.3 0.1l-0.1 0.6-0.3 0.6-0.2 0.5-0.6 0.5-0.2 0.1-0.3 0.1-0.2-0.2-0.1-0.1-0.2 0.1-0.1 0.2-0.3 0.4-0.2 0.3-0.3 0.6-0.1 1.6v0.3 0.4 0.4l-0.3 1.1-0.1 0.3-0.2 0.3-0.1 0.3-0.5 0.5-0.3 0.2-0.4 0.2-1.1 0.2-1.5 0.2-0.2 0.3-0.5 0.7-0.1 0.5v0.1l-0.2 0.2-0.1 0.2-1 0.7-0.2 0.2-0.1 0.2-0.4 0.6-0.2 0.7v0.1l-0.1 0.3-3 2.6-0.2 0.4-0.2 0.6-0.1 0.1-0.1 0.1-0.6 0.5-0.6 0.8h-0.1l-0.1 0.1h-0.2l-0.3 0.1-0.3-0.1-0.3-0.1-0.4-0.3-0.5-0.2-0.2-0.1-0.2-0.3-0.3-1.1 1.3 0.1h0.5 0.1 0.2l0.1-0.1v-0.2l0.1-0.2v-0.2l-0.7-4.9-0.7-8.6 0.1-2.6 0.1-0.3 0.2-0.5-0.8-0.3-0.7-0.1-6-0.4-0.2-0.6-0.3-3.6 0.4 0.1 0.5 0.1h0.5l0.3-0.2 0.1-0.4-0.4-0.3-0.3-0.1-0.2-0.2 0.5-5-1.2-8.5-0.3-0.7-0.6-0.8-0.6-0.9-0.7-1.9-1.5-2.7-0.5-1.8-0.6-0.6-1.5-0.9zm-17.2 0.8l0.5-1.3 1-0.4 0.6-0.5 0.1 0.7-0.3 0.3-0.3 0.5v0.5l-0.1 0.3v0.6l0.3 0.8-0.2 0.6-0.3 0.6-0.5 0.2-0.7-0.5-0.2-0.8h-0.4l-0.3-0.9zm4.8-5.2l0.4 0.7 0.1 0.4 0.1 0.3-0.5 0.2-0.5 0.2-0.4 0.5-0.5 0.2-0.2 0.7-0.7-0.5-0.2-1h-0.8l-0.7 0.3-0.7 0.8-0.6 0.6h-0.7l-0.5 0.6-0.5 0.3h-0.4l-0.5-1.9 0.3-0.8-0.1-1.1-0.8-0.2-1-0.2h-0.8l-0.3-0.5-0.2-0.8v-1.8l1 0.4 0.8-0.4 1.4 0.1 0.6 0.5 1.4 0.1 0.7-0.1 0.6-0.6 0.5-0.7 0.4-0.1h0.6l-0.1-0.4-0.1-0.2h0.4l0.4 0.2 0.3 0.9 0.3 0.6 0.5 0.4 0.9 0.4-0.1 0.4 0.3 0.1 0.4 0.3-0.2 0.6z"/>
	<path class="s1" d="m162.3 76.9l-0.1 0.1-1.5 1.9-3.3 3-1.4 1.5-0.2 0.5 0.5 2.4 0.1 0.3 0.2 0.4v0.2l-0.1 0.7v2.3 0.2l-0.1 0.1-0.3 0.2v0.4l0.2 2.5v0.6l-0.1 0.5h-0.1v0.2 0.2l0.8 0.9 0.9 0.7 0.1 0.2 0.1 0.4-0.1 1-0.6 1.1v0.2l-0.2 0.9-0.1 2.4 0.1 0.7 0.1 0.1-0.1 0.2v0.3l-0.2 0.7v0.2l0.1 0.2 0.2 0.1 0.6 0.1h0.1l0.2 0.2 0.1 0.1h0.2 0.2l0.2 0.1 0.1 0.1 0.2 0.2 0.3 0.2h0.2l0.5 0.7 0.2 0.1 0.2 0.1h0.2l0.1 0.1 0.1 0.1 0.4 0.5 0.4 0.3v0.2l-0.2 0.3-0.1 0.1v0.2l-0.1 0.1v0.1h-0.2l-0.3 0.1v0.1l-0.1 0.1v0.3l0.4 2v0.2l-0.1 0.1-0.1 0.1-0.1 0.1h-0.1l-0.1 0.2v0.1 0.1 0.1 0.1l0.1 0.4 0.3 1.2 0.1 0.6-0.1 0.4v0.8 0.2l0.2 0.1 0.5 0.2h0.2l0.1-0.1 0.1-0.1h0.1 0.2 0.1 0.1l1 0.4 2.1 1.5h0.2l0.4 0.1 0.1 0.2v0.2l0.1 0.6 0.1 0.4 0.2 0.3 0.2 0.1 0.1 0.2 0.3 0.9v0.3l-0.1 0.6h-0.9l-0.3-0.2-0.5-0.2-0.1-0.1h-0.1l-0.2 0.1-0.2 0.2-0.1 0.1v0.2 0.2 0.2l-0.1 0.1-0.1 0.2-0.1 0.2v0.1 0.2 0.1l0.2 0.3h0.1l0.1 0.7v0.3 0.2l-0.1 0.1-0.1 0.1-0.2 0.1-0.5-0.1-0.6-0.1-0.2-0.1-0.2-0.1v-0.1l-0.2-0.1h-0.1-0.1-0.1l-0.2 0.2-0.2 0.3-0.1 0.1-0.1 0.1-0.2 0.2-0.1 0.1-0.2 0.1-0.3 0.2-0.2 0.1h-0.2l-0.3-0.1-0.3-0.1-0.1-0.1-0.4-0.2-0.8-0.5-0.1-0.2-0.2-0.3-0.1-0.1h-0.2l-0.3-0.1-0.3 0.1-0.3-0.1h-0.2l-0.2-0.1-0.2-0.1h-0.4l-0.5 0.2-0.4 0.1-0.4 0.3v0.2 0.1l0.1 0.2v0.1 0.2l-0.1 0.1-0.4 0.6-0.5 0.3v0.1l-0.2 0.6-0.2 0.1h-0.4l-0.6-0.1-0.4-0.1-0.1-0.1-0.9-0.5h-0.2-0.3l-0.9 0.2-0.3 0.2-0.2 0.1-0.4 0.5-0.8-0.1h-0.2l-0.2-0.1-0.1-0.2-0.1-0.2-0.1-0.1v-0.1l-0.1-0.1-0.2-0.1h-0.1-0.1l-0.1-0.2v-0.2-0.1-0.2l-0.1-0.2h-0.1l-0.2-0.3-1.5-1.2-0.1-0.1-0.1-0.1v-0.2-0.3l-0.1-0.1-0.1-0.7-0.1-0.1-0.1-0.1-0.4 0.1-2.3 1h-0.4l-0.3-0.2-0.2-0.2-0.1-0.1h-0.1-0.2-0.2l-0.1-0.1-0.3-0.5-0.1-0.1-0.1-0.1-0.1 0.1-0.2 0.1-0.2 0.2-0.1 0.1h-0.3-0.2l-0.1-0.2-0.2-0.2-0.2 0.1-0.3 0.4-0.1 0.1-0.1 0.2 0.1 0.2v0.2 0.3 0.3l-0.4 1.9-0.1 0.3-0.1 0.1-0.5 0.4-0.2 0.4-0.1 0.2-0.1 0.1v0.2 0.5l-0.1 0.2h-0.2l-0.3-0.1-0.2-0.1v-0.2-0.1l-0.3-0.5v-0.2-0.1l0.1-0.4v-0.2-0.1-0.1l-0.1-0.2-0.1-0.1-0.1-0.1-0.7-0.3-0.2-0.2-0.2-0.1-0.2-0.1h-0.1l-0.1-0.1-0.1-0.1v-0.2-0.2l-0.1-0.1v-0.1l-0.1-0.2-0.1-0.1h-0.1l-0.2-0.1h-0.2l-0.2-0.1h-0.1l-0.1-0.1-0.1-0.1v-0.2-0.4-0.3-0.2l-0.1-0.1-0.1-0.1-0.1-0.1h-0.1l-0.3-0.1-0.4 0.1-0.1 0.1-0.2 0.1-0.1 0.2-0.2 0.4v0.3 1 0.2l-0.2 1 0.1 0.9-0.1 0.2-0.1 0.7h-0.1l-0.1 0.2-0.1 0.1-0.3 0.1-0.9 0.3-0.3 0.1-0.3 0.3-0.3 0.3-1.3 0.6-0.3 0.3-0.2 0.2-0.2 0.3-0.2 0.2-0.3 0.2-0.2 0.1-0.9 0.3h-0.3l-0.2-0.2-0.3-0.2-0.7 0.1-0.4-0.4-0.3-0.3-0.2-0.1-0.6-0.2-0.2-0.1-0.2-0.2-0.1-0.1h-0.1l-0.3-0.1h-0.6l-0.4 0.1h-0.3-0.1l-0.5 0.2-0.2 0.1v0.1l-0.1 0.2v0.2 0.2h-0.1-0.2-0.6l-0.4-0.4-0.2-0.2-0.6-0.5-0.5-0.2-1.7-0.5-0.4-1.1-0.2-0.6-0.9-1.2 0.6-0.7 0.1-0.1 0.2-0.1 0.2-0.1h0.1 0.2 0.1 0.2 0.1v-0.1l0.1-0.3v-0.5l-0.1-0.5v-0.1-0.2-0.1-0.1l0.2-0.2h0.2l0.2-0.1 0.2-0.1 0.1-0.2 0.1-0.4 0.1-0.3 0.1-0.2 0.1-0.1 0.1-0.2v-0.1l-0.1-0.4-0.3-0.7v-0.1-0.2l0.2-0.2 0.3-0.4 0.1-0.1h0.1l0.3-0.1h0.1 0.4l0.2-0.2 0.1-0.2 0.4-1.2v-0.3-0.2l-0.3-1.7-0.1-0.3-0.4-0.3-0.4-0.8 0.8-0.5v-0.2l0.1-0.2 0.1-0.3v-0.4-0.2l0.1-0.2 0.2-0.2 0.1-0.2 0.1-0.6v-0.4-0.4l0.1-0.1 0.5-0.9 0.1-0.3v-0.3-0.2-0.1-0.2l0.2-0.3v-0.2l0.1-0.2v-0.1l-0.1-0.4v-0.2l0.1-0.2 0.1-0.4v-0.4l0.1-0.6v-0.1l0.1-0.3 0.6-0.8 0.2-0.2v-0.1-0.8-0.1l0.2-0.5 0.1-0.2v-0.4l0.1-0.1 0.1-0.1h0.3 0.2 0.2l0.1-0.1 0.2-0.2 0.1-0.3 0.2-0.2 0.6-0.6 0.2-0.1 0.1-0.3v-0.2l-0.1-0.1v-0.2l0.2-0.2 0.1-0.2 0.6-0.4 0.3-0.2 0.1-0.1v-0.1l0.2-0.1h0.1l0.3 0.1 0.2 0.3 0.2 0.1h0.1l0.4 0.1h0.3l0.3 0.2 0.5 0.3h0.1 0.1l0.3-0.4 0.2-0.1 0.3-0.2h0.2 0.2 0.2l0.2 0.1h0.1 0.1l0.2-0.1 0.2-0.1 0.5-0.3 0.1-0.1 0.1-0.3 0.1-0.2-0.3-0.6 0.1-1.2 0.1-0.4 0.1-0.2-0.1-0.3-0.2-0.4v-0.4l0.1-0.3 0.2-0.4v-0.1l0.1-0.2v-0.2l-0.1-0.2-0.1-0.3-0.2-0.4-0.1-0.1h-0.2-0.1-0.2l-0.3-0.2h-0.1-0.2l-0.2 0.2h-0.2-0.2-0.1l-0.3-0.2-0.1-0.1h-0.2-0.3-0.1l-0.2-0.1v-0.2-0.2l0.3-0.8 0.2-0.5 0.2-0.5v-0.2-0.2l-0.1-0.6-0.1-0.2-0.1-0.1-0.3-0.3-0.1-0.1-0.1-0.1-0.1-0.2v-0.2-0.6-0.4-0.1-0.4-0.2l0.1-0.2 0.3-0.4 0.2-0.3 0.5-0.3 0.1-0.1 0.2-0.6v-2.2-0.2l0.7-0.7 0.4-0.1 0.7 0.1 0.2 0.4 0.3 0.6 0.4 0.4 0.9 0.5 0.7-0.1 0.4-0.6 0.4-0.9 0.2-0.1 1.3-0.9 0.1-0.3 0.2-0.4 0.2-0.3 0.4-0.3 1.5-1.2 0.3-1.6v-1.8l0.6-1.7 1-1.3 3.1-2.4 1.1-1.1 0.5-1.4-0.2-3.2 0.3-2.3 1.1 0.8 2.1 1.6 0.6 0.1 1-0.2 0.1-0.5-0.3-0.3-0.7 0.2 0.4-0.7 0.9 0.1 4.9 1.7 0.9 0.6 1.8 1.8 5 10 0.9 1.1z"/>
	<path class="s1" d="m164.6 220.9l0.2-1.1 0.1-0.3 0.5-0.6 0.1-0.2v-0.3-0.1l-0.1-0.4v-0.5-0.2l0.2-0.5v-0.2-0.4l-0.1-0.1-0.1-0.2v-0.3l0.1-0.4 0.1-0.4 0.3-0.6 0.1-0.2 0.2-0.2 0.2-0.4v-0.1-0.1-0.3l-0.2-0.4-0.1-0.1 0.1-0.3 0.3-1.1 2.4-6.2 0.2-1.3 1.8 0.6 2.2 0.9 0.6 0.4 5.9 7.1 1.5 1.2 6.6 2.7 0.2 0.1h0.1l6.4-2.3 1.7-0.4h0.6l0.5 0.3 0.5 0.3 2.4 0.9 0.2 0.2 0.4 0.4 0.2 0.3 0.1 0.1 5.9 3.6 0.4 0.1 0.2-0.1v-0.1l-0.1-0.2v-0.1l0.1-0.1 0.1-0.1 0.4-0.6v-0.1-0.2l0.1-0.3-0.1-0.1v-0.3l-0.1-0.2-0.2-0.3-0.1-0.2-0.1-0.1h-0.2l-0.4-0.1-0.1-0.1-0.1-0.1v-0.1-0.1-0.1-0.1-0.2l0.1-0.1 0.3-0.4 0.1-0.1v-0.1l-0.3-0.5v-0.2l0.1-0.1 0.1-0.2h0.1l0.1-0.1 0.1-0.2 0.1-0.1 0.1-0.3v-0.2-0.1l-0.1-0.1-0.1-0.1-0.1-0.2-0.1-0.1-0.2-0.1-0.3-0.2v-0.1h-0.1v-0.2l0.1-0.2 0.9-0.5h0.1l0.4-0.7 0.1-0.3 0.5 0.3 0.7 0.1h0.7l0.3 0.2 0.6 0.5 0.4 0.2 0.4-0.1 1-0.4 0.6 0.2 0.1 0.3-0.1 0.4 0.1 0.3 1.5 1.2 0.5 0.6 1.1 2.4-0.4 1-0.1 0.8 0.4 0.7 3.1 3.9 0.3 0.4 0.9 0.7 0.3 0.3 0.2 0.4 0.1 0.8 0.1 0.5 0.2 0.4 0.8 0.9 0.1 0.6-0.1 0.3-0.4 0.9-0.1 0.5 0.3 0.8 2 2.4 1.1 2.7 0.7 1.1 0.5 0.9 0.3 0.5 0.8 1 0.3 0.4 0.3 1 0.1 0.9-0.2 1.8 0.3 0.8 0.5 0.9 0.5 0.5 0.6-0.4h0.2l1.1 2 0.5 1.9 0.7 1.1 0.3 0.7v1.3l0.2 0.6 0.5 0.6 0.3 0.5-0.1 0.5 0.2 0.5 0.3 1.7 0.9 2.4 0.4 1.9v1.1l-0.3 0.4-0.4 0.4 0.2 1.8-0.3 0.6h-1.5l-0.2 0.2-0.4 0.6-0.2 0.1-1.9-0.1-0.8-0.1-1.7-0.7-0.4-0.2v-0.5-0.8l-0.2-0.6-0.5-0.4-0.6-0.5-0.4-0.3-0.2-1.6 1.1-0.7 1.5-0.6 1-1.2-0.7-0.2-0.8 0.2-0.6 0.5-1.5 1-0.3 0.1-0.1-0.2-0.3-0.8-1.3-2.8-1-1.4-1-0.7-0.1 0.5 0.3 1.2 1.6 2.4v0.7l-0.1 1.1 0.1 0.6 0.1 0.5 0.1 0.7-0.1 0.7-1.5 1.2-2-0.5-3.6-1.9-1.1 0.1-1.7 0.8-0.8 0.3-1.7-0.2-0.7 0.1-0.7 0.4-2.1 2.7-1.2 1-1.6-0.3v-0.2l-0.3-0.4-0.3-0.4-0.2 0.3v0.4l0.3 0.6v0.4l-0.1 0.5-0.7 1-0.7 1.5-0.5-0.8-1.4-1.3-0.6-0.8-0.4-0.8-1.3-4.5-0.8-1.7-1.2-1.3-1.8-1.1-5-1.9-7-4.4-1.7-0.8-0.9-0.3-1-0.1-0.7-0.2-0.5-0.4-0.6-1.1-0.9-0.9-0.9-0.9-1.2-0.7-1.4-0.7-0.6 0.3-2.1 0.3h-0.7l-0.9-0.6-0.6-0.8-0.8-1.7-0.7-0.8-3.4-2.8-0.5-0.5-0.3-0.5 0.4-0.1v-0.2l-0.1-0.2v-0.1l-0.5-0.5-0.7-0.6-1.7-0.9 0.8-1.1 0.4-0.3 0.5 0.1h0.1l0.1-0.2 0.1-0.3 0.1-0.9v-0.3l-0.1-0.3-0.1-0.1-0.2-0.1h-0.2-0.2l-0.2-0.1-0.7-0.3-0.3-0.1-0.1-0.1-0.1-0.1-0.1-0.3v-0.1l-0.1-0.2 0.1-0.2 0.7-0.6 0.1-0.1v-0.2l0.1-0.3-0.1-0.2v-0.3l-0.1-0.2 0.1-0.2 0.1-0.4 0.7-2.2 0.1-0.3v-0.2l-0.1-0.4v-0.2l0.1-0.3 0.2-0.3 0.8-1.1 0.3-0.3 1-0.3zm68-15.3l0.1 2.1-0.1 0.5-0.5 0.4-0.8 0.2h-0.8l-0.6-0.1-0.9-0.9-0.3-0.5v-0.4l0.1-0.2-0.3-0.7 0.1-0.4 0.2-0.2 0.5-0.3 0.3-0.2 0.4-0.7v-0.6l-0.2-0.6-0.1-0.7 0.1-0.4 0.2-0.5 0.4-0.2 0.5 0.1 0.1 0.1 0.1 0.3 0.1 0.5 0.1 0.3 0.6 0.8 0.2 0.6z"/>
	<path class="s1" d="m113.6 129l1.7 0.5 0.5 0.2 0.6 0.5 0.2 0.2 0.4 0.4h0.6 0.2 0.1v-0.2-0.2l0.1-0.2v-0.1l0.2-0.1 0.5-0.2h0.1 0.3l0.4-0.1h0.6l0.3 0.1h0.1l0.1 0.1 0.2 0.2 0.2 0.1 0.6 0.2 0.2 0.1 0.3 0.3 0.4 0.4 0.7-0.1 0.3 0.2 0.2 0.2h0.3l0.9-0.3 0.2-0.1 0.3-0.2 0.2-0.2 0.2-0.3 0.2-0.2 0.3-0.3 1.3-0.6 0.3-0.3 0.3-0.3 0.3-0.1 0.9-0.3 0.3-0.1 0.1-0.1 0.1-0.2h0.1l0.1-0.7 0.1-0.2-0.1-0.9 0.2-1v-0.2-1-0.3l0.2-0.4 0.1-0.2 0.2-0.1 0.1-0.1 0.4-0.1 0.3 0.1h0.1l0.1 0.1 0.1 0.1 0.1 0.1v0.2 0.3 0.4 0.2l0.1 0.1 0.1 0.1h0.1l0.2 0.1h0.2l0.2 0.1h0.1l0.1 0.1 0.1 0.2v0.1l0.1 0.1v0.2 0.2l0.1 0.1 0.1 0.1h0.1l0.2 0.1 0.2 0.1 0.2 0.2 0.7 0.3 0.1 0.1 0.1 0.1 0.1 0.2v0.1 0.1 0.2l-0.1 0.4v0.1 0.2l0.3 0.5v0.1 0.2l0.2 0.1 0.3 0.1h0.2l0.1-0.2v-0.5-0.2l0.1-0.1 0.1-0.2 0.2-0.4 0.5-0.4 0.1-0.1 0.1-0.3 0.4-1.9v-0.3-0.3-0.2l-0.1-0.2 0.1-0.2 0.1-0.1 0.3-0.4 0.2-0.1 0.2 0.2 0.1 0.2h0.2 0.3l0.1-0.1 0.2-0.2 0.2-0.1 0.1-0.1 0.1 0.1 0.1 0.1 0.3 0.5 0.1 0.1h0.2 0.2 0.1l0.1 0.1 0.2 0.2 0.3 0.2h0.4l2.3-1 0.4-0.1 0.1 0.1 0.1 0.1 0.1 0.7 0.1 0.1v0.3 0.2l0.1 0.1 0.1 0.1 1.5 1.2 0.2 0.3h0.1l0.1 0.2v0.2 0.1 0.2l0.1 0.2h0.1 0.1l0.2 0.1 0.1 0.1v0.1l0.1 0.1 0.1 0.2 0.1 0.2 0.2 0.1h0.2l0.8 0.1 0.4-0.5 0.2-0.1 0.3-0.2 0.9-0.2h0.3 0.2l0.9 0.5 0.1 0.1 0.4 0.1 0.6 0.1h0.4l0.2-0.1 0.2-0.6v-0.1l0.5-0.3 0.4-0.6 0.1-0.1v-0.2-0.1l-0.1-0.2v-0.1-0.2l0.4-0.3 0.4-0.1 0.5-0.2h0.4l0.2 0.1 0.2 0.1h0.2l0.3 0.1 0.3-0.1 0.3 0.1h0.2l0.1 0.1 0.2 0.3 0.1 0.2 0.8 0.5 0.4 0.2 0.1 0.1 0.3 0.1 0.3 0.1h0.2l0.2-0.1 0.3-0.2 0.2-0.1 0.1-0.1 0.2-0.2 0.1-0.1 0.1-0.1 0.2-0.3 0.2-0.2h0.1 0.1 0.1l0.2 0.1v0.1l0.2 0.1 0.2 0.1 0.6 0.1 0.5 0.1 0.2-0.1 0.1-0.1 0.1-0.1v-0.2-0.3l-0.1-0.7h-0.1l-0.2-0.3v-0.1-0.2-0.1l0.1-0.2 0.1-0.2 0.1-0.1v-0.2-0.2-0.2l0.1-0.1 0.2-0.2 0.2-0.1h0.1l0.1 0.1 0.5 0.2 0.3 0.2h0.9l0.9 1.7 0.3 0.5 0.7 0.4 0.7 0.5 0.4 0.3 0.8 0.2h0.3l0.2 0.1 0.8 0.1h0.7l1.2-0.1 0.6 0.2 0.8 0.7 0.4 0.5v0.1l0.2 0.3v0.3l0.2 0.5v0.2l-0.1 0.2-0.1 0.1-0.1 0.2-0.1 0.9v0.2l-0.1 0.1-0.1 0.1-0.1 0.1-0.5 0.2-0.1 0.1-0.2 0.1-0.1 0.2-0.1 0.3 0.1 0.4 0.1 0.4 0.2 0.7 0.1 0.3 0.2 0.3 0.3 0.2 0.3 0.3 0.3 0.4 0.2 0.2 0.1 0.1h0.6 0.1l0.2 0.1h0.2l0.2-0.1 0.6 0.1 0.2 0.1 0.1 0.1 0.3 0.1 0.1 0.1h0.2v-0.1-0.1l0.1-0.3 0.1-0.1 0.1-0.1 0.1-0.1 0.1-0.1h0.2l0.2 0.1 1.4 1.4 0.1 0.2 0.1 0.1v0.5l0.1 0.3 0.1 0.1h0.2l0.1 0.6-0.2 0.6-0.3 0.6-0.1 0.3-0.1 0.3 0.3 0.6-0.1 0.2-0.1 0.1h-0.3-0.1l-0.3-0.1h-0.2-0.2l-0.2 0.1-0.2 0.1-0.4 0.3-0.2 0.2-0.1 0.3-0.2 0.6-0.2 0.3-0.4 0.4-0.2 0.2-0.1 0.2v0.2 0.7l-0.4 1.6v0.8 0.3l-0.1 0.6-0.1 0.2v0.3l-0.5 0.6-0.1 0.2v0.2l0.4 0.7 0.2 0.2 0.1 0.1 0.1 0.1 0.1 0.1h0.2 0.4l2.3-1 0.6-0.1 0.2 0.2 0.1 0.1 0.2 0.1 0.5 0.1 1.1 0.3 0.3 0.1 0.1 0.2 0.2 0.2 0.3 0.1 1.4 0.6h0.2l0.1 0.1 0.1 0.1 0.1 0.1v0.1l0.1 0.2 0.1 0.1h0.1v0.1l0.2 0.3 0.2 0.1 0.2 0.1 0.3 0.2 1 0.7h0.2 0.2l0.3-0.1 0.2-0.1 0.1 0.1 0.1 0.1v0.3l0.1 0.2 0.1 0.2 0.2 0.2h0.2 0.1l0.1-0.1 0.2-0.1h0.3l0.2 0.1 0.1 0.1 0.1 0.6v0.1 0.2l0.2 0.2 0.3 0.5 0.7 0.6 0.1 0.2 0.1 0.2v0.1 0.1l-0.1 0.3 0.1 0.2v0.2l0.5 0.4 0.1 0.3 0.4 0.9 0.1 0.2 0.2 0.2 0.2 0.2 0.2 0.1 0.1-0.1 0.1-0.1-0.2-0.9 0.1-0.1v-0.2l0.1-0.1 0.1-0.1 0.2-0.1 0.1-0.2 0.2-0.3 0.1-0.3 0.1-0.5v-0.1-0.2-0.1l-0.4-1.2-0.3-0.6v-0.1l-0.1-0.2v-0.1-0.2-0.3l0.1-0.3v-0.2-0.1-0.4l-0.1-0.3-0.1-0.1-0.1-0.1-0.1-0.1h-0.2l-0.1-0.1-0.1-0.2-0.1-0.1v-0.1l-0.1-0.4v-0.1-0.2l0.2-0.9 0.1-0.2 0.1-0.1 0.1-0.2 0.1-0.1 0.1-0.2 0.1-0.1 0.1-0.2v-0.4-0.2l-0.1-0.7v-0.2l-0.2-0.8v-0.1h0.1 0.4l0.2 0.1v0.1l0.1 0.1 0.1 0.1 0.1 0.1h0.2l3.1 0.2 0.5 0.1 0.3 0.1h0.2l-0.1 0.1-0.4 0.1-0.3 0.3-0.9 1.2-0.3 0.6-0.1 0.7 0.3 1.4 1.6 3.8-0.2 1.1-0.9-0.6-0.7 1.2-0.5 1.9-0.2 1.4 0.1 1.5-0.1 0.8h-0.8l-0.3 0.5-0.4 0.8-0.2 0.5v0.8l0.3 0.7 1.6 3.6 0.1 0.5 0.7 1 1.5 1.4 1 1.4-0.7 1.3 1.5-0.4-2 4.3-0.3 1.8 0.8 5.2 0.2 0.8 0.2 0.8-0.9 10.1 0.3 1.8 1.3 2.9 2 2.7 5 4.8-0.1 0.3-0.4 0.7h-0.1l-0.9 0.5-0.1 0.2v0.2h0.1v0.1l0.3 0.2 0.2 0.1 0.1 0.1 0.1 0.2 0.1 0.1 0.1 0.1v0.1 0.2l-0.1 0.3-0.1 0.1-0.1 0.2-0.1 0.1h-0.1l-0.1 0.2-0.1 0.1v0.2l0.3 0.5v0.1l-0.1 0.1-0.3 0.4-0.1 0.1v0.2 0.1 0.1 0.1 0.1l0.1 0.1 0.1 0.1 0.4 0.1h0.2l0.1 0.1 0.1 0.2 0.2 0.3 0.1 0.2v0.3l0.1 0.1-0.1 0.3v0.2 0.1l-0.4 0.6-0.1 0.1-0.1 0.1v0.1l0.1 0.2v0.1l-0.2 0.1-0.4-0.1-5.9-3.6-0.1-0.1-0.2-0.3-0.4-0.4-0.2-0.2-2.4-0.9-0.5-0.3-0.5-0.3h-0.6l-1.7 0.4-6.4 2.3h-0.1l-0.2-0.1-6.6-2.7-1.5-1.2-5.9-7.1-0.6-0.4-2.2-0.9-1.8-0.6-0.5-1.9-0.3-0.4h-0.1l-0.1 0.1-0.1 0.1h-0.2-0.1l-0.2-0.1-8.4-5.8-1.2-1.6-0.1-0.1-1.7-1.8-0.2-0.2-3.3-0.5h-0.3l-5.2-1.7-1.7-0.8-0.4-0.1-0.2-0.1v0.2l-0.1 0.1h-0.2l-0.5 0.1h-0.1l-0.1 0.1-0.3 0.2-0.5 0.2-0.3 0.1h-0.2l-0.2-0.1v-0.1l-0.1-0.2v-0.4-0.2-0.2l-0.1-0.1-0.1-0.4-0.1-0.2-0.2-0.3-0.2-0.1h-0.2-0.5-0.8l-0.2-0.1h-0.2l-0.2-0.1-0.1-0.1-0.1-0.1-0.3-0.2-0.1-0.1-0.1-0.1v-0.1-0.2l-0.2-0.2-0.2-0.3-0.9-0.5-0.3-0.2-0.3-0.1-0.1 0.1v0.2l-0.1 0.1v0.1l-0.1 0.1-0.1 0.1-0.1 0.1-0.2 0.2-1.1-0.2h-0.3l-1.5-0.8-0.5-0.1-0.1-0.1h-0.1l-2.7-3.5 0.4-1.2 0.4-0.6 0.1-0.2v-0.3l-0.4-1.3v-0.1l-0.1-0.3-0.3-0.4-0.1-0.2v-0.1-0.2-0.2-0.2l0.1-0.4 0.8-1.4 0.1-0.1h0.1l0.3-0.1 0.1-0.1 0.1-0.1 0.1-0.1 0.1-0.2 0.2-1.3-0.1-0.3-0.3-0.6-0.6-1-0.2-0.3v-0.2-0.1l-0.1-0.2-0.2-0.1-0.1-0.1-0.2-0.5-0.2-0.2-1.4-0.8-0.8-0.3h-0.2-0.4-0.1l-0.2-0.1-0.7-0.4-0.3-0.1-0.6-0.5-1.1-1.8-0.4-0.7-0.3-0.1h-0.2l-0.2-0.1-0.1-0.2v-0.4l0.2-1.8v-0.4l-0.1-0.3-0.1-0.4-0.4-0.4-0.1-0.2-0.2-0.7-0.3-3.1-0.1-0.4-0.4-0.4v-0.1-0.1l0.1-0.7 0.9-2.5-1.1-1.5-0.4-0.4h-0.2l-0.2-0.2-0.2-0.1-0.1 0.1-0.4 0.2h-0.1l-0.1-0.3-0.2-0.6-0.3-1v-0.5-0.3l0.2-0.2v-0.1-0.1l-0.3-0.2-0.3-0.1-0.1-0.1-0.7-0.1-0.3-0.1-0.2-0.1-0.1-0.2v-0.2l0.1-0.5v-0.2l0.1-0.2v-0.2-0.2l-0.3-0.2-0.1-0.1-0.3-0.6v-1.7l-0.1-0.4-0.2-0.1-0.3-0.2-0.2-0.2-0.1-0.2 0.1-0.2h0.1l0.1-0.2 0.2-0.4v-0.1l0.2-0.2v-0.1-0.2l-0.1-0.2-0.1-0.1-0.2-0.1-0.4-0.1-2-0.5-0.3 0.1-0.2-0.1-0.2-0.2-0.4-0.6-0.6-0.4 0.4-0.6 0.3-0.3 0.1-0.1 0.1-0.2 0.1-0.1 0.1-0.4 0.4-0.8 0.1-0.1 0.2-0.1h0.1v-0.2-0.2l-0.1-0.4-0.5-0.5-0.1-0.1-0.3-0.9v-0.3l0.1-0.7z"/>
	<path class="s1" d="m70.8 88.9l6 0.4 0.7 0.1 0.8 0.3-0.2 0.5-0.1 0.3-0.1 2.6 0.7 8.6 0.7 4.9v0.2l-0.1 0.2v0.2l-0.1 0.1h-0.2-0.1-0.5l-1.3-0.1-0.6-0.2h-0.4l-3.2 0.8v-0.1l0.2-0.3 0.4-1.3 0.5-1.3 0.1-0.9-0.1-0.4-0.3-0.9-0.1-0.2 0.1-0.6 0.3-0.7 0.1-0.4-0.1-0.6-1-2-0.9-1.1-0.2-0.6-0.1-1 0.3-3.6-0.3-1-0.9-1.6zm-1.9 5l0.4 0.6 0.6 0.3 0.5 0.4-0.8 1.5-0.2 1.6-0.2 0.7-1 2-0.1 0.7-2.2-0.3h-1.7-0.1v0.1h-0.1l-0.3-0.1-0.2-0.1v-0.2l0.6-0.4 0.1-0.5-0.2-2.3 0.1-1.9-0.1-0.4-0.2-0.3-0.2-0.3-0.1-0.2 0.1-0.4 0.2-0.3v-0.2l-0.3-0.4 0.6-0.2 0.1 0.3 0.2 0.3 0.4 0.2 0.3-0.1 0.3-0.2 0.2-0.4 0.3-0.2 0.7-0.2 0.9 0.1 0.8 0.2z"/>
	<path class="s1" d="m139.2 222.2l1.3-0.8 0.4-0.3 0.6-0.9 0.2 0.4 0.1 0.1h0.1 0.1 0.1l0.2-0.4 0.1-0.1 0.1-0.1 0.1-0.1 0.1-0.1v-0.4-0.1-0.1h0.2l0.1-0.1 0.9 0.3h0.2l1.7-0.5 0.2-0.1 0.2-0.1 0.7-0.8 0.1-0.1h0.1 0.2l0.7 0.5 1.1 0.5 1.7 0.3 0.3-0.1 2.9-0.9 0.3-0.1h1.4l2.3 1.1 0.7 0.3 5.9 1.4-0.8 0.7-1 0.3-0.3 0.3-0.8 1.1-0.2 0.3-0.1 0.3v0.2l0.1 0.4v0.2l-0.1 0.3-0.7 2.2-0.1 0.4-0.1 0.2 0.1 0.2v0.3l0.1 0.2-0.1 0.3v0.2l-0.1 0.1-0.7 0.6-0.1 0.2 0.1 0.2v0.1l0.1 0.3 0.1 0.1 0.1 0.1 0.3 0.1 0.7 0.3 0.2 0.1h0.2 0.2l0.2 0.1 0.1 0.1 0.1 0.3v0.3l-0.1 0.9-0.1 0.3-0.1 0.2h-0.1l-0.5-0.1-0.4 0.3-0.8 1.1-5.8-2.4-6.7-2.8-1.5-0.8-1.1-0.9-3.1-3.5-0.5-0.2-0.9-0.2-0.9-0.4-0.4-0.8z"/>
	<path class="s1" d="m127.9 213.6l0.1-1 0.3-0.5 0.2-0.4 0.1-0.3 0.1-0.8 0.1-0.2 0.2-0.5 1.1-2.3-0.1-1.7-0.4-2.4-0.1-0.7 0.1-0.4 0.6-0.1h0.4l1.2 0.1 1.6 0.3h0.2l0.2-0.1 0.3-0.1 0.4-0.4 0.3-0.2 0.1-0.2 0.2-0.5 0.1-1 0.2-0.8 0.1-0.2 0.1-0.1 0.1-0.1 0.7-0.6 0.2-0.2h0.1l0.1-0.4v-0.1-0.4l0.1-0.5 0.2-0.5 0.1-0.3 0.1-0.2 0.1-0.1 0.3-0.2 0.3-0.1 0.1-0.1v-0.1-0.4l-0.2-0.5v-0.7l-0.1-0.7v-0.5l0.2-1.4v-0.3-0.1l-0.1-0.3-0.1-0.1-0.1-0.2-0.3-0.4-0.1-0.4v-0.2-0.1-1.1-0.2-0.2-0.3l-0.3-0.4-0.2-0.5-0.2-0.1-0.1-0.1-0.1-0.2h-0.3l0.2-0.2 0.1-0.1 0.1-0.1 0.1-0.1v-0.1l0.1-0.1v-0.2l0.1-0.1 0.3 0.1 0.3 0.2 0.9 0.5 0.2 0.3 0.2 0.2v0.2 0.1l0.1 0.1 0.1 0.1 0.3 0.2 0.1 0.1 0.1 0.1 0.2 0.1h0.2l0.2 0.1h0.8 0.5 0.2l0.2 0.1 0.2 0.3 0.1 0.2 0.1 0.4 0.1 0.1v0.2 0.2 0.4l0.1 0.2v0.1l0.2 0.1h0.2l0.3-0.1 0.5-0.2 0.3-0.2 0.1-0.1h0.1l0.5-0.1h0.2l0.1-0.1v-0.2l0.2 0.1 0.4 0.1 1.7 0.8 5.2 1.7h0.3l3.3 0.5 0.2 0.2 1.7 1.8 0.1 0.1 1.2 1.6 8.4 5.8 0.2 0.1h0.1 0.2l0.1-0.1 0.1-0.1h0.1l0.3 0.4 0.5 1.9-0.2 1.3-2.4 6.2-0.3 1.1-0.1 0.3 0.1 0.1 0.2 0.4v0.3 0.1 0.1l-0.2 0.4-0.2 0.2-0.1 0.2-0.3 0.6-0.1 0.4-0.1 0.4v0.3l0.1 0.2 0.1 0.1v0.4 0.2l-0.2 0.5v0.2 0.5l0.1 0.4v0.1 0.3l-0.1 0.2-0.5 0.6-0.1 0.3-0.2 1.1-5.9-1.4-0.7-0.3-2.3-1.1h-1.4l-0.3 0.1-2.9 0.9-0.3 0.1-1.7-0.3-1.1-0.5-0.7-0.5h-0.2-0.1l-0.1 0.1-0.7 0.8-0.2 0.1-0.2 0.1-1.7 0.5h-0.2l-0.9-0.3-0.1 0.1h-0.2v0.1 0.1 0.4l-0.1 0.1-0.1 0.1-0.1 0.1-0.1 0.1-0.2 0.4h-0.1-0.1-0.1l-0.1-0.1-0.2-0.4-0.6 0.9-0.4 0.3-1.3 0.8v-0.2l-0.8-0.1-0.6-0.2-1.3-0.9-0.7 0.6-1.3 0.1-0.5 0.5-0.4-1v-1.3l-0.2-1.2-0.8-0.5-0.2-0.1-0.4-0.3-0.6-0.7-0.9-2.5-0.4-0.4-0.5-0.2z"/>
	<path class="s1" d="m694 97.4l0.4 2.2v1l-0.8 0.8-0.4-0.1-0.8-0.5h-0.3l-0.8 0.8-1.1 0.6 0.1-0.6 1.1-3.3 0.4-0.4 1.2-1.1 0.6-0.3z"/>
	<path class="s1" d="m127.8 188l0.2-0.1h0.2l0.5-0.2 0.2-0.1v0.1l0.1 0.2 0.2 0.1 0.2 0.5 0.2 0.4 0.1 0.1v0.3 0.2l-0.1 0.2-0.3 0.1-0.1 0.2-0.1 0.7v0.1l-0.2 0.2v0.1l-0.1 0.3 0.1 0.4 0.1 0.8 0.2 1.7v0.2l-0.1 0.1-0.1 0.2h-0.1-0.1l-0.2 0.1-0.1 0.1-0.1 0.3-0.1 0.1-0.1 0.1h-0.1l-0.1-0.1-0.1-0.2-0.1-0.1h-0.3l-1.2 0.1h-0.2-0.3l-0.2-0.1-0.2-0.1v-0.2l-0.1-0.3-0.1-0.2v-0.2-0.2l0.1-0.1 0.3-0.3v-0.1-0.1-0.2l-0.1-0.3-0.1-0.1-0.1-0.1-0.1-0.1v-0.2-0.2l-0.1-0.2-0.1-0.2-0.6-0.2-0.1-0.1-0.1-0.2v-0.1l-0.2-0.3-0.1-0.1-0.1-1.5v-0.2l0.5-1 0.2-0.2 0.1-0.1v-0.1l0.5-0.3 0.3-0.2 0.1-0.1h0.1 0.1 0.3l0.4 0.6 1 0.4z"/>
	<path class="s1" d="m126.2 202l-0.1-0.1-0.2-0.1-0.2-0.4v-0.3l0.1-0.3 0.2-0.2 0.1-0.2v-0.1-0.2l-0.1-0.7v-0.2l0.1-0.1v-0.3l-0.1-0.2-0.1-0.3 0.1-0.2 0.2-0.1 0.7-0.1 0.1-0.2h0.2l0.4-0.3 0.1 0.8 0.3 0.3 0.3 0.5v0.7l-0.8 1-0.2 0.4-0.2 0.2-0.5 0.6z"/>
	<path class="s1" d="m167.3 122.5l0.1-0.6v-0.3l-0.3-0.9-0.1-0.2-0.2-0.1-0.2-0.3-0.1-0.4-0.1-0.6v-0.2l-0.1-0.2-0.4-0.1h-0.2l-2.1-1.5-1-0.4h-0.1-0.1-0.2-0.1l-0.1 0.1-0.1 0.1h-0.2l-0.5-0.2-0.2-0.1v-0.2-0.8l0.1-0.4-0.1-0.6-0.3-1.2-0.1-0.4v-0.1-0.1-0.1-0.1l0.1-0.2h0.1l0.1-0.1 0.1-0.1 0.1-0.1v-0.2l-0.4-2v-0.3l0.1-0.1v-0.1l0.3-0.1h0.2v-0.1l0.1-0.1v-0.2l0.1-0.1 0.2-0.3v-0.2l-0.4-0.3-0.4-0.5-0.1-0.1-0.1-0.1h-0.2l-0.2-0.1-0.2-0.1-0.5-0.7h-0.2l-0.3-0.2-0.2-0.2-0.1-0.1-0.2-0.1h-0.2-0.2l-0.1-0.1-0.2-0.2h-0.1l-0.6-0.1-0.2-0.1-0.1-0.2v-0.2l0.2-0.7v-0.3l0.1-0.2-0.1-0.1-0.1-0.7 0.1-2.4 0.2-0.9v-0.2l0.6-1.1 0.1-1-0.1-0.4-0.1-0.2-0.9-0.7-0.8-0.9v-0.2-0.2h0.1l0.1-0.5v-0.6l-0.2-2.5v-0.4l0.3-0.2 0.1-0.1v-0.2-2.3l0.1-0.7v-0.2l-0.2-0.4-0.1-0.3-0.5-2.4 0.2-0.5 1.4-1.5 3.3-3 1.5-1.9 0.1-0.1 0.3 0.3 2.2 1.3 1 0.8 0.8 1 0.6 1.4 0.4 0.6 1.1 0.6 7.5 5.9 1.8 0.8 1.7 0.4 0.7 0.5 2.2 1.9 3.9 4.4 4.2 6.8 1.5 3.5 4.2 6.9 2.4 4.6 0.3 0.8 0.1 0.2 0.8 0.9 0.1 0.4 0.1 0.5-0.3 1.2 0.1 1 0.3 1.7 0.8 6.4v0.9l-0.5 0.9-0.3 0.8 0.6 1.9-0.1 0.6 1.3 3.9 0.1 1.3-0.1 0.4-0.6 1.5-0.3 0.5-0.2 0.2-0.7 0.7-0.2 0.4 0.1 0.3 0.3 1.1-0.3 0.5h-0.2-0.2l-0.3-0.1-0.5-0.1-3.1-0.2h-0.2l-0.1-0.1-0.1-0.1-0.1-0.1v-0.1l-0.2-0.1h-0.4-0.1v0.1l0.2 0.8v0.2l0.1 0.7v0.2 0.4l-0.1 0.2-0.1 0.1-0.1 0.2-0.1 0.1-0.1 0.2-0.1 0.1-0.1 0.2-0.2 0.9v0.2 0.1l0.1 0.4v0.1l0.1 0.1 0.1 0.2 0.1 0.1h0.2l0.1 0.1 0.1 0.1 0.1 0.1 0.1 0.3v0.4 0.1 0.2l-0.1 0.3v0.3 0.2 0.1l0.1 0.2v0.1l0.3 0.6 0.4 1.2v0.1 0.2 0.1l-0.1 0.5-0.1 0.3-0.2 0.3-0.1 0.2-0.2 0.1-0.1 0.1-0.1 0.1v0.2l-0.1 0.1 0.2 0.9-0.1 0.1-0.1 0.1-0.2-0.1-0.2-0.2-0.2-0.2-0.1-0.2-0.4-0.9-0.1-0.3-0.5-0.4v-0.2l-0.1-0.2 0.1-0.3v-0.1-0.1l-0.1-0.2-0.1-0.2-0.7-0.6-0.3-0.5-0.2-0.2v-0.2-0.1l-0.1-0.6-0.1-0.1-0.2-0.1h-0.3l-0.2 0.1-0.1 0.1h-0.1-0.2l-0.2-0.2-0.1-0.2-0.1-0.2v-0.3l-0.1-0.1-0.1-0.1-0.2 0.1-0.3 0.1h-0.2-0.2l-1-0.7-0.3-0.2-0.2-0.1-0.2-0.1-0.2-0.3v-0.1h-0.1l-0.1-0.1-0.1-0.2v-0.1l-0.1-0.1-0.1-0.1-0.1-0.1h-0.2l-1.4-0.6-0.3-0.1-0.2-0.2-0.1-0.2-0.3-0.1-1.1-0.3-0.5-0.1-0.2-0.1-0.1-0.1-0.2-0.2-0.6 0.1-2.3 1h-0.4-0.2l-0.1-0.1-0.1-0.1-0.1-0.1-0.2-0.2-0.4-0.7v-0.2l0.1-0.2 0.5-0.6v-0.3l0.1-0.2 0.1-0.6v-0.3-0.8l0.4-1.6v-0.7-0.2l0.1-0.2 0.2-0.2 0.4-0.4 0.2-0.3 0.2-0.6 0.1-0.3 0.2-0.2 0.4-0.3 0.2-0.1 0.2-0.1h0.2 0.2l0.3 0.1h0.1 0.3l0.1-0.1 0.1-0.2-0.3-0.6 0.1-0.3 0.1-0.3 0.3-0.6 0.2-0.6-0.1-0.6h-0.2l-0.1-0.1-0.1-0.3v-0.5l-0.1-0.1-0.1-0.2-1.4-1.4-0.2-0.1h-0.2l-0.1 0.1-0.1 0.1-0.1 0.1-0.1 0.1-0.1 0.3v0.1 0.1h-0.2l-0.1-0.1-0.3-0.1-0.1-0.1-0.2-0.1-0.6-0.1-0.2 0.1h-0.2l-0.2-0.1h-0.1-0.6l-0.1-0.1-0.2-0.2-0.3-0.4-0.3-0.3-0.3-0.2-0.2-0.3-0.1-0.3-0.2-0.7-0.1-0.4-0.1-0.4 0.1-0.3 0.1-0.2 0.2-0.1 0.1-0.1 0.5-0.2 0.1-0.1 0.1-0.1 0.1-0.1v-0.2l0.1-0.9 0.1-0.2 0.1-0.1 0.1-0.2v-0.2l-0.2-0.5v-0.3l-0.2-0.3v-0.1l-0.4-0.5-0.8-0.7-0.6-0.2-1.2 0.1h-0.7l-0.8-0.1-0.2-0.1h-0.3l-0.8-0.2-0.4-0.3-0.7-0.5-0.7-0.4-0.3-0.5z"/>
	<path class="s1" d="m91.1 161.4l0.2-0.1 0.7-0.2 1.5-0.2 1.2-0.2 0.4-0.1h0.1l0.1 0.1 0.2 0.2v0.2l-0.1 0.1v0.2l-0.1 0.1v0.2h0.1v0.1l1.1 0.7 0.2 0.2 0.1 0.2-0.1 0.1-0.2 0.2-0.1 0.3-0.1 0.2v0.2 0.1 0.2l0.1 0.1 0.2 0.1h0.2l0.2-0.1 0.2-0.1v-0.1l0.1-0.3v-0.2h0.1l0.1-0.1 0.1-0.1h0.1 0.3l0.1-0.1 0.2-0.1h0.1 0.2 0.2l0.1 0.2v0.2l0.1 0.1 0.2 0.1h0.4l0.3-0.1h0.1 0.2l0.1 0.2-0.1 0.6 0.1 0.2v0.2 0.1 0.1l0.1 0.1 0.2-0.1 0.2-0.3v-0.1l0.2-0.2h0.2 0.1v-0.2l0.1-0.1h0.2 0.1v0.1 0.3 0.1l0.1 0.1 0.2 0.2 0.1 0.1v0.2l-0.1 0.1h-0.2l-0.3-0.1h-0.2l-0.1 0.1v0.2 0.1l-0.1 0.3v0.1h0.1l0.4-0.3h0.1 0.1l0.3 0.1 0.3 0.1 0.4-0.4 0.2-0.1v-0.1-0.2h0.2 0.1l0.3 0.2 0.1 0.2v0.3 0.1l0.1 0.1h0.2 0.1l0.1-0.1 0.1-0.2h0.1l0.1 0.2 0.2 0.2 0.3 0.4 0.1 0.1h0.2l0.2-0.1 0.4-0.2h0.1 0.2l0.2 0.2 0.2 0.3 0.2 0.1h0.1l0.6-0.3 0.3-0.1 0.4 0.3v0.4 0.2 0.2 0.2 0.1l0.1 0.3 0.1 0.1v0.1l0.2 0.1h0.1l0.2 0.1h0.6l1.1-0.3 0.4-0.1 0.9-0.5 0.4-0.5-0.1-0.8-0.2-0.8-0.2-0.5v-0.1l-0.3-0.3-0.1-0.1-0.1-0.2h0.1v-0.1l0.2-0.3v-0.2l0.1-0.2 0.1-0.1h0.1 0.1l0.3-0.1 0.6-0.1 0.3 0.1 0.5 0.1 0.2 0.1v0.2 0.2l0.1 0.1 0.1 0.2 0.1 0.1h0.1l0.1 0.1h0.1l0.2 0.2 0.1 0.1 0.1 0.1 0.3 0.1 0.3 0.1 0.5 0.1 0.1 0.1h0.2 0.1l0.3 0.5v0.1l0.2 0.5 0.1 0.1 0.1 0.1 0.1 0.1 0.4 0.1v0.1l0.1 0.1 0.1 0.1 0.1 0.1h0.1l0.2 0.1 0.2 0.1 0.2 0.1v0.1l0.3 0.5v0.1h0.1 0.1l0.2 0.1 0.2-0.1h0.2l0.4-0.1 0.3-0.4 1-0.8 1.4-1.9 0.2-0.3 0.2-0.2 0.1-0.1 0.7-0.1 1.1 1.8 0.6 0.5 0.3 0.1 0.7 0.4 0.2 0.1h0.1 0.4 0.2l0.8 0.3 1.4 0.8 0.2 0.2 0.2 0.5 0.1 0.1 0.2 0.1 0.1 0.2v0.1 0.2l0.2 0.3 0.6 1 0.3 0.6 0.1 0.3-0.2 1.3-0.1 0.2-0.1 0.1-0.1 0.1-0.1 0.1-0.3 0.1h-0.1l-0.1 0.1-0.8 1.4-0.1 0.4v0.2 0.2 0.2 0.1l0.1 0.2 0.3 0.4 0.1 0.3v0.1l0.4 1.3v0.3l-0.1 0.2-0.4 0.6-0.4 1.2 2.7 3.5h0.1l0.1 0.1 0.5 0.1 1.5 0.8h0.3l1.1 0.2h0.3l0.1 0.2 0.1 0.1 0.2 0.1 0.2 0.5 0.3 0.4v0.3 0.2 0.2 1.1 0.1 0.2l0.1 0.4 0.3 0.4 0.1 0.2 0.1 0.1 0.1 0.3v0.1 0.3l-0.2 1.4v0.5l0.1 0.7v0.7l0.2 0.5v0.4 0.1l-0.1 0.1-0.3 0.1-0.3 0.2-0.1 0.1-0.1 0.2-0.1 0.3-0.2 0.5-0.1 0.5v0.4 0.1l-0.1 0.4h-0.1l-0.2 0.2-0.7 0.6-0.1 0.1-0.1 0.1-0.1 0.2-0.2 0.8-0.1 1-0.2 0.5-0.1 0.2-0.3 0.2-0.4 0.4-0.3 0.1-0.2 0.1h-0.2l-1.6-0.3-1.2-0.1h-0.4l-0.6 0.1-0.1 0.4 0.1 0.7 0.4 2.4 0.1 1.7-1.1 2.3-0.2 0.5-0.1 0.2-0.1 0.8-0.1 0.3-0.2 0.4-0.3 0.5-0.1 1h-0.3l-0.6-0.4-0.3-0.4-0.7-0.5-2.4-0.4-0.8-0.4-1.4-0.2-1-0.4-1.6-1.2-1-1.1-2-3.2-1.3-1.1-1.9-0.4-1.8-0.2-1.1-0.8 0.7-1.8-0.9-0.1 0.1-0.6 2.1-2.5 0.6-0.6 0.6-0.2 0.4-0.5v-1.1l-0.3-2-0.2-0.6-1.2-0.9-0.3-0.5-0.9-5.4-0.2-1-0.6-0.6-1.4-1.2-0.2-0.3-0.1-0.4-0.3-0.3-0.8-0.2-0.4-0.2-0.4-0.3-0.1-0.2-0.3-0.7-2-2.6-1.3-1.3-0.3-0.3-0.3-1-0.9-1.2-0.3-1.9-0.4-0.9-0.6-0.9-3.1-2.1-1-0.4-0.4-0.3-0.2-0.3-0.7-1.1-1.1-1.4-0.7-0.5-1.9-0.3-0.5-0.5v-0.7l0.5-1zm36.6 26.7h-0.3l-1-0.5-0.5-0.5-0.2-0.1h-0.1l-0.1 0.1-0.1 0.1-0.3 0.1-0.5 0.3v0.1l-0.1 0.1-0.2 0.3-0.5 1v0.1l0.1 1.5 0.1 0.2 0.1 0.2 0.1 0.1 0.1 0.2 0.1 0.1 0.5 0.3 0.2 0.2 0.1 0.1v0.2 0.2l0.1 0.1v0.1l0.1 0.1 0.1 0.1 0.1 0.2v0.2 0.1 0.1l-0.3 0.4h-0.1v0.2 0.2l0.1 0.3 0.1 0.2v0.2l0.2 0.1 0.2 0.1h0.2 0.3l1.2-0.1h0.2l0.1 0.1h0.1l0.1 0.2 0.1 0.2h0.1l0.1-0.1 0.1-0.2 0.1-0.3 0.1-0.1 0.1-0.1h0.1 0.2l0.1-0.1 0.1-0.1v-0.3l-0.2-1.6-0.2-0.8-0.1-0.5 0.1-0.3h0.1l0.2-0.2v-0.2l0.1-0.6 0.1-0.2 0.3-0.2v-0.2-0.2-0.2-0.2l-0.2-0.4-0.2-0.4-0.2-0.2-0.1-0.2-0.1-0.1-0.2 0.1-0.4 0.2-0.2 0.1zm-1.5 13.9l0.3-0.1 0.6-0.5 0.2-0.3 0.1-0.4 0.9-1v-0.7l-0.3-0.4-0.4-0.3-0.1-0.8-0.3 0.2h-0.2l-0.2 0.2-0.6 0.1-0.3 0.1-0.1 0.3 0.1 0.3 0.2 0.1v0.3l-0.2 0.1v0.3l0.2 0.6v0.3l-0.1 0.1-0.1 0.1-0.2 0.2-0.1 0.4v0.3l0.2 0.3 0.2 0.1zm-17.2-7.2l-0.1 0.4-0.3 0.3-0.7 0.2-0.2-0.5 0.2-0.5 0.9-0.3zm2.8-0.2v0.3 0.5l-0.1 1-0.6 0.6-0.8 0.3-0.6 0.4-0.3 0.3-0.2 0.2h-0.3l-0.1-0.2 0.1-0.5 1-2.5 0.6-0.9 0.7-0.3 0.6 0.3z"/>
	<path class="s1" d="m701.2 114.4l3.9 0.4 2-0.1 1.1-0.2h0.9l0.5 0.1 0.3 0.2 0.2 0.5 0.9 4 0.1 0.4-0.1 0.5-0.6 2.1-0.2 0.4-0.2 0.4-0.9 0.9-0.1 0.2-0.2 0.4-0.1 0.8-0.2 1.5-0.1 0.4-0.1 0.5-1.3 2.3-0.1 0.3-0.1 0.4 0.2 3.1 0.2 0.6 0.6 1 0.2 0.5v0.3 1l0.1 0.7 0.1 0.5 0.3 0.3 0.3 0.2 0.3 0.1 0.7 0.1 0.3 0.1 0.4 0.3 0.4 0.4 0.6 0.7 0.2 0.5 0.1 0.5-0.1 0.4-0.3 0.9-0.2 0.4-1.2 1.6-0.2 0.5-0.1 0.6 0.1 1 0.1 0.6 0.1 0.6 0.2 0.3-0.2 0.8-0.4 3.7-0.5 1.8-0.9 1.6-0.3 0.5-1.6 0.8-0.2 0.3v0.9l0.6 0.7 0.9 0.4 0.6 0.7v1.3l-1.7 4.9-0.2 1.6v1.7l0.2 1 1 2.6 0.1 0.4-0.1 0.8v0.5l0.1 0.5 0.7 1.2 0.4 0.9v0.4l-0.3 0.5-0.4 0.1-0.4-0.1-0.4-0.2-0.3-0.1-0.9 1-0.8 1.9-1.5 6.3v0.8l0.7 0.8 0.7 0.2 0.1 0.3-1.5 1.9-0.2 0.8-0.2 1.7-0.4 0.9-0.6 0.3-1.7 0.2-2.7 1.2-1.4 0.2-1.2-0.6-1.1-1.6-0.5-0.2-0.7 1.1-0.8 1.5-0.5 0.6-2.3 1.6-0.8 0.6-0.5 0.9-0.2 0.5-0.1 0.4-0.2 0.5-0.2 0.4-0.7 0.6-0.3 0.1-0.1 0.2 0.3 0.6 1 1.3 0.3 0.9-0.4 1-0.5 0.3-0.4 0.1-0.4 0.2-0.3 0.5v0.4l0.5 0.8 0.2 0.4-0.2 0.9-0.4 1-0.1 0.8 0.7 0.6h0.4l0.9-0.5h0.5 0.4l0.6 0.1 0.5 0.3 0.4 0.3 0.6 0.6 0.7 1 0.5 1 0.1 0.7-0.6 0.8-0.9 0.3-1.9 0.2-0.9 0.5-1.5 1.8-0.7 0.4-0.7 0.4-1.8 1.5-0.8 0.5-1.6-0.1-0.6 0.2-0.2 0.9v0.9l0.1 0.7-0.2 0.5-1.1 0.4-3.3 0.4-1.2 0.7-0.7 1.7-0.4 2.2v0.8l0.2 0.4 0.4 0.6 0.1 0.5v1.3 0.4l0.5 1h0.4l0.7-0.3 0.9-0.1 0.5 0.3 0.2 0.6v0.6l-0.1 0.5-0.4 0.8-0.2 0.8v0.7l0.1 0.9v0.7l-0.5 0.6-2.4 0.9-2.2 0.2-0.5 0.2-0.4 0.4-0.4 0.3-0.2 0.4-0.2 0.5 0.1 0.2 0.1 0.4 0.2 0.5v1.3l-0.4 2.9-0.8 2.2-1 1.8-0.7 0.7-1.5 1.2-0.5 0.7v1l0.2 0.9v0.9l-0.2 0.8-0.7 0.6-1 0.3-0.9-0.4-0.2-0.1-3-2.2-1-0.5-1-0.1-0.8 0.2-6.3 2.6h-0.1l-0.9 0.7-0.3 0.2-0.6-0.2-0.4-0.5-0.4-0.4-0.4-0.4-1.6-0.4h-1.7l-6 1-0.8 0.2-1 0.8-2.4 3.2-6.7 4.4-1 0.3-1.2-0.5-2.1-2.6-0.9-0.5h-0.8l-0.9 0.2-1.7 0.7-2-0.1-3-2.4-2-0.7-2.5-0.5-1.9-0.1-0.5-0.2-1.4-1.1-1.5-0.7-1.6-0.2-1.6 0.3-1.7 0.5h-0.6l-0.1-0.3 0.2-0.5 1.3-0.9 0.7-0.7 0.4-0.8 0.3-0.9-0.1-0.9-0.4-0.7-0.7-0.3-1-0.4-0.7-0.2-2 0.1-0.8-0.1-0.7-0.2-0.7-0.1-0.8 0.3-0.4 0.3-0.3 0.4-0.3 0.3-0.4 0.3-0.4-0.1-1.1-0.3-12.4-0.6-1 0.2-0.7 0.4-0.6 0.7-0.7 0.5-0.7 0.3-2.7 0.2-0.9 0.3-4.8 2.3-0.8 0.6-0.3 1.1 0.2 0.4h1l0.1 0.3v0.6l-0.1 0.4-1.3 2.6-2.2 6.4-0.3 0.4-0.6 0.3-1.1 0.2-3.3-0.1-2.6 0.9-3.7 4.4-2.5 0.6-1.2-0.3-2.2-0.9-1.1-0.4h-0.8-0.5l-3.6 1.5-1 1.3-0.5 0.3-0.5-1-0.1-0.7-0.2-0.7-0.5-0.3h-0.7l-1.6 0.5-0.9 0.2-0.8-0.1-1-0.3-5.6-2.4-0.9-0.1-9.3 2.4-2.7 0.1-1.2 0.2-1.2 0.6-2.4 2-0.3 0.6-0.1 0.7-0.1 0.4-0.3 0.2h-0.2l-0.4-0.4-0.2-0.1-0.4 0.3-0.1 0.1-0.8 0.3h-0.2l-0.5-0.2h-0.2l-0.5 0.3-0.7 0.7-0.7 0.3-0.5-0.1-0.4-0.3-0.2-0.3-0.3-0.2h-0.5l-0.1 0.1-0.2 0.3-0.5 0.5-1.7 0.8-2-0.2-2-1-1.5-1.2-1.7-2.4-0.7-0.6-0.6-0.2-2-0.4-0.7 0.1-0.5 0.1-0.5-0.1-0.1-0.9-0.1-1-2.1-3-0.9-1.8-0.7-0.8-0.7-0.5-2.4-0.3-0.8-0.3-1-0.7-0.8-1.6-0.9-0.7-1.5-0.7-0.5-0.5-0.5-0.9-0.8-2.4-0.5-0.7-0.8-0.4h-0.8l-0.8 0.2-0.8-0.1-0.8-0.7-0.7-1.8-0.3-0.2-0.8 0.4-0.3-0.1-0.1-1.1-0.3-0.4-3.7-3.3-0.8-1-0.4-0.9-0.3-0.8v-1.9l0.3-3.2-0.3-0.8-0.7-0.3-1.8-0.1-0.6-0.2-0.4-0.3-0.5-0.6-0.2-0.4-0.2-0.6v-0.3-0.3l-0.3-1.5v-0.7l0.4-0.5 1.5-1.3 0.5-0.5 0.6-0.9 1.1-2 0.8-2.2 0.2 0.7 0.1 0.9 0.4 1.8 0.1 0.8-0.2 0.7-0.2 0.5-0.1 0.7 0.5 1 1.2 1.7 0.8 0.8 0.8 0.6 2.6 1.1 1.5 0.9 1.7 0.7 0.7 0.6 0.5 0.7 0.7 1.4 0.5 0.8 0.6 0.1h2l0.6-0.1 0.6-0.4 0.9-0.1h5.3l0.6 0.2 0.8 0.5 0.5 0.2 0.1-0.2 0.8-0.5 0.2-0.2 0.4-0.1 0.3-0.1 0.2 0.2 1 1.1 0.3 0.1 0.2-0.7 0.4-0.5 0.1-0.3-0.1-0.2-0.1-0.5v-0.2l-0.1-1.2 0.1-0.5 0.4-0.9 0.7-0.3 0.6 0.1 0.3 1.2 0.4 0.6 0.1 0.2 0.1 0.3-0.1 0.6v0.3l0.2 0.3 0.1 0.2 0.3 0.2 0.3 0.1 0.3 0.2 0.3 0.1h0.9l0.5-0.2 0.5-0.7 1.3-0.5 0.7-0.4 0.6-0.1 0.6 0.8-0.5 0.6-0.3 0.6-0.3 0.6-0.1 0.9-0.1 0.3-0.7 0.8-0.3 0.5 1.1-0.5 0.6-0.1 0.6 0.3 0.4 0.4 0.1 0.5 0.2 0.3 0.5 0.2 0.3-0.1 0.9-0.4h0.5l0.5 0.2 1.7 0.9 2.5 0.7 1.1 0.6 0.5 1-0.3 1-0.7 0.8-1.6 1v0.4l1.1-0.1 0.9-0.1 0.8-0.4 0.8-0.8 0.3-0.7v-0.8l-0.1-0.8-0.1-0.7 1.2-0.9 1.8 0.3 3.7 1.5 1.7 1.1 3.2 3.3 1.6 1.1 2.5 1.1 0.5 0.2 1-0.1 1.4-0.7 0.9-0.3 1.4 0.6 1.5 1.2 1.6 0.8 1.8-0.8-0.7-0.1-1.2-0.4-0.5-0.2-0.2-0.2-0.4-1.1-0.3-0.3-0.7-0.1-1.1-0.4-0.7-0.1-0.4 0.1-1.6 0.8h-0.9l-0.8-0.3-0.6-0.5-0.6-0.6-0.8-0.5-1.9-0.7-0.6-0.6-0.8-2-0.8-0.8-0.2-0.5v-1.2-0.4l0.6-1.4 0.4-1.6 0.4-0.5 2.4-0.4 0.9-0.1 0.8 0.3 0.6 0.7 0.5 1 0.6 0.6 1-0.5 0.6-0.1 0.5 0.5 0.7 0.4 0.9-0.3-0.8-0.3-0.4-0.2-0.7-0.5-0.4-0.1h-0.4l-0.8-0.2h-0.3l-0.1-0.1v-0.5l-0.5-0.6-0.1-0.2-0.2-0.2-0.7-0.2-0.3-0.1-0.1-0.2-1-1.6-0.2-0.5-0.1-0.7 0.2-0.2 0.9-0.3 0.3-0.2v-0.3l-0.7-0.3-0.2-0.4 0.2-0.9 0.4-0.7 0.9-1.5 1.3-2.7 1.2-3.8 0.1-1 0.2-0.2 0.5 0.1 0.8 0.2 1-0.1-1-0.9-0.1-0.9 0.6-0.6h0.7l0.8 0.4 1.6 0.2h0.3l0.6-0.4 0.2-0.3 0.9-1.1v-0.3l-0.3-0.4-0.5 0.2-0.4 0.4-0.4 1.1-0.3 0.1-0.5-0.2-1.2-0.7-0.8-0.2-3.1 0.5-0.5-0.1-0.3-0.5v-0.9l0.3-0.7 0.6-0.6 0.9-0.5 0.8 0.2-0.4-0.8-0.8-0.3-0.7-0.2-0.4-0.2 0.1-0.8 0.4-1.9 0.5-3 0.5-1.2 1-0.8 0.4 0.7 0.5 0.4 1.5 0.4 0.4 0.4 1.1 1.3 0.4 0.2 0.2 0.2 0.2 0.2 0.4 0.2 0.3-0.1 1.3-0.9 0.4-0.1 1.4-0.2h0.3l0.8 0.6 0.8 0.5-0.3-0.8-0.8-0.8-1.4-1.3-0.4-0.5-0.5-1.8-0.3-0.6 1.3 0.1 1.2 0.3 1 0.1 0.8-0.8 0.2 0.1v0.1l0.1-0.1 0.3-0.1-0.9-0.3-1.6-0.4-0.7-0.4-0.5-0.5-0.5-0.4-0.1-0.7v-1l0.7-2.6 0.2-1.6 0.2-0.6 0.5-0.5 3.1-2.3 4.5-2.8 1.2-0.7 8.1-1.5 6.4-0.2 11.8-3.2 11.6-3 6.4-1.4 2.6-1h0.5l7.3-2.2 1.4-0.8 2.2-2.4 0.9-1.5-0.5-1 0.3-0.4 1-0.7 2.1-1.8 0.4-0.2 0.2-0.5 1.4-2.1 3.3-2.9 0.7-1.2 0.2-0.3 0.1-0.3 0.1-0.9 0.1-0.5 1-0.7 0.2-0.3 0.4-0.4 2-2.3 0.9-1.7 0.3-0.9 0.2-1 0.3-0.8 0.8-0.6 1.7-1 10.2-8.8 8.8-11.4 0.9-2.1-0.4-1.6 0.9-1.3 0.5-1.9v-1.9l-1-4 0.3-0.7 0.9-0.2 2.8 1.2 2.3 0.4 0.8 0.5 1.4 1 1.1 0.4 0.4 0.4 0.4 0.8 0.2 0.2h0.7 0.2l0.1 0.3 0.1 0.4 0.1 0.2 0.5 0.5 0.2 0.5 0.3 1.2v1.2l0.6 0.8 0.3 1.9-0.2 0.4-0.5 0.5-0.2 0.3 0.1 0.6 0.2 0.4 1.4 0.1 1.8 0.3 1.8-0.2h0.8l0.5 0.5 0.8 2.7 0.5 0.8 0.6 0.8 2.6 2.4 0.8 0.6 0.4 0.4 0.2 0.4 0.3 1 0.2 0.4 1.7 0.2 2-1.2 3.9-3.6 0.3-0.7 0.3-1.7 0.2-0.8 1-1.4 0.3-0.8-0.2-0.8-1.3 0.6v-0.8l0.2-0.5 0.3-0.3 1-0.9 0.4-0.7 0.4-0.7 0.4-1.6 0.1-1.2-0.3-0.2-0.6 0.1-0.9-0.3-0.8-1.2-0.2-1.5-0.2-5-0.1-0.9-0.3-0.8-0.8-1.6-0.3-0.7v-0.7h0.1l0.4-0.4 1.5-0.6 0.7-0.5 1.3-1.3 0.8-0.5 0.9-0.3 0.8 0.1 0.8 0.1h0.7l0.7-0.4 0.3-0.7v-0.6l0.1-0.7 1-0.9 0.4-0.2 0.4-0.3 0.3-0.3 0.3-0.4 0.3 0.9v1.6l0.2 1.6-0.2 3.3 0.2 3.3 0.3 1.7 1.4 3.3 0.4 1.6 0.6 4.2 0.3 0.5 0.6 0.4 2.3 0.9 0.9 0.2 1.3-0.1 0.4 0.1 0.6 0.5 0.4 0.2h0.8l0.4 0.1 0.7 0.5 1 0.5h0.9l0.7-0.6-0.2-0.9-0.6-0.9-1.5-1.4-0.9-1.3-0.5-1.7-0.3-1.7v-1.6l0.3-1.7 0.1-0.8-0.1-1-2.8-7.9-1-1.5-0.6-0.3-0.5-0.3-0.5-0.4v-0.9h0.8l0.6-0.1 0.4-0.3 0.5-1.5 0.4-0.3 0.6 0.1 0.5 0.5 0.1 0.3 0.2 0.1h1 0.3l0.5 0.2 0.3 0.2 0.4 0.8 0.7 0.3h1l0.6-0.1 0.5-0.3 1.4-1.5 0.2-0.3zm-167.8 107.8v0.2l0.1 0.4-0.2 0.3-0.4-0.3-0.4-0.2-0.4 0.2-0.3 0.4-0.2 0.4-0.4-0.6-0.7-1.7-0.5-0.4-0.8-0.4-0.2-0.8 0.3-1.9 0.1-1.7-0.7-6.9 0.1-2.1 0.5-1.3 1.4 0.5 0.9 1.3 0.5 1.8v7.3l0.4 3.1z"/>
	<path class="s1" d="m710.2 148.6l-0.2-0.3-0.1-0.6-0.1-0.6-0.1-1 0.1-0.6 0.2-0.5 1.2-1.6 0.2-0.4 0.3-0.9 0.1-0.4-0.1-0.5-0.2-0.5-0.6-0.7-0.4-0.4-0.4-0.3-0.3-0.1-0.7-0.1-0.3-0.1-0.3-0.2-0.3-0.3-0.1-0.5-0.1-0.7v-1-0.3l-0.2-0.5-0.6-1-0.2-0.6-0.2-3.1 0.1-0.4 0.1-0.3 1.3-2.3 0.1-0.5 0.1-0.4 0.2-1.5 0.1-0.8 0.2-0.4 0.1-0.2 0.9-0.9 0.2-0.4 0.2-0.4 0.6-2.1 0.1-0.5-0.1-0.4-0.9-4-0.2-0.5-0.3-0.2-0.5-0.1h-0.9l-1.1 0.2-2 0.1-3.9-0.4 1.1-1 1.3-1.7 0.5-0.3 0.9-0.1 0.8-0.3 0.6-0.6 0.4-0.4 0.3-0.7 0.2-1.7 0.1-1.5 0.1-0.5 0.5-0.8 0.3-0.3 0.4-0.3 0.2-0.3-0.3-0.5-1.6 0.7-1.6-0.1-1.4-0.5-3.7-3.3-0.1-0.4 0.1-0.3v-0.3l-0.5-0.2-0.1 0.2-0.9 0.6-0.2-0.4 0.1-0.6 0.2-0.7 0.3-1.3 0.4-0.6 0.2-0.4 0.1-0.4 0.6-0.4 2.1-1.3 0.5-0.8 0.5-0.6 2.9-2.2 1.5-3.2 0.9-0.8 0.5 0.9-1.4 2.7 0.9 1.3 0.2-0.5 0.1-1.1 0.2-0.5 1.5 1.3 0.9 0.3 3.7 0.3 1.1-0.1 1.1-0.3 1.3-1.1 1.1-1.7 0.9-1.8 0.4-1.8 0.4-1.8 0.2-0.8 0.4-0.7 0.7-0.5 3.8-2 0.6-0.8 0.3-1v-1.9l0.3-0.9 2.6-4.1 0.6-1.8-0.6-1.3-1 0.4-0.3-0.6 0.4-0.8 1.3-0.3 0.7-0.5 2-3 0.9-0.8 0.6-0.3h0.6l0.5 0.1 0.7 0.3 0.5 0.1 0.2-0.5-0.2-1.3-0.5-0.2-0.8 0.5h-1v-0.2l1-0.6 0.8-0.7 0.1-0.2 0.3-0.1 0.8 0.1 0.5-0.2 0.1-0.1v-0.3l0.3-1.4 0.1-0.2 0.2-0.4 0.5-0.4 3.7-2.8 0.6-0.7 0.7-0.5 0.8-0.4 0.7-0.5 0.1-0.8 0.1-0.8 0.1-0.9 0.4-0.6 0.5-0.3 0.8-0.5 2.6-3.5 0.6-0.6 0.4-0.6 0.2-0.7 0.1-1.1-0.1-1.5 0.1-0.3 0.2-0.4 0.6-0.7 0.1-0.5-0.1-1.5 0.1-0.7 1.3-0.6 0.3-0.7 0.4-1.6v-0.9l0.1-0.4 0.4-0.2 0.2-0.1 0.4-0.7 0.2-0.5 0.3-0.4 0.5-0.2h0.5l0.1 0.1 0.5 0.9 1.7 1.2 0.3 0.5 0.5 3-0.8-0.5-0.5-0.1-0.1 0.2-0.3 1.3v0.2l0.4 0.5 0.8 0.2 0.5 0.3 0.3 0.9-0.2 1.7-0.4 1.1-1.4 2-0.7 1.5-0.7 1.8 0.3 1.5 1.6 0.4 0.9-0.5 0.7-0.7 0.5-0.8 0.4-0.3 0.6-0.3 1.8-1.8 1.4-1 0.2-0.4 0.2-1.6 0.3-0.1h0.3l0.2-0.3 0.6-1.2 1.5-1.5 0.2-0.6-0.2-0.9-1-1.9 0.1-0.9 0.3-0.4 0.3-0.1 0.4 0.2 0.5 0.1 0.4-0.2 0.3-0.3 0.1-0.3-0.1-0.1-0.4-0.2-0.1-0.5 0.1-0.4 0.2-0.3 0.5-0.1 0.4 0.1 0.5 0.2 0.3 0.1 0.4-0.3 0.6-0.5 0.3 0.1 0.3 0.1 1.1 0.5 0.3 0.1 0.2 0.2 2.1 1.2 0.2 0.2 0.2 0.4 0.1 0.7-0.3 2-0.2 0.4-0.6 0.4-0.2 0.7 0.1 0.8 0.3 0.7 1.5 2 0.2 0.8 0.1 2.6 0.2 0.7 0.5 0.9 0.6 0.3h1.6l0.6 0.2 0.7 0.4 0.9 1.1 1 1 0.7 0.5 0.7 0.2 0.6-0.2 0.6-0.4 1-1.6 0.6-0.9h0.4l0.1 0.7v1.1h0.1l1 1-0.1-0.1-0.1 0.2v0.3 0.3h0.1l0.6 0.2h0.2l0.5 0.6 0.5 0.2 0.5 0.1 0.5-0.3 0.5-0.1 0.4 0.3 1 1 0.5 0.8 0.4 0.9h0.3l0.1-0.4 0.3-0.2 0.2 0.1 0.2 0.2 0.2 0.3 0.1 0.2v0.5 0.5l0.2 0.3 0.3 0.7 0.1 0.4-0.2 0.4-0.2 0.3-0.2 0.4 0.4 1.2-0.4 2.8-0.3 0.6h-0.6l-1.4-0.2-0.8 0.2-0.7 0.5-1.2 1.1-0.3 0.7 0.1 0.7 1 1.1 0.6 1.6 0.6 0.3 0.2 0.2v0.5l0.2 0.2v0.4l-0.2 0.6-0.4 0.3-0.3 0.1-0.4 0.2-0.1 0.5 0.3 0.7 0.5 0.1 0.7 0.3 0.2 1-0.2 0.7-0.6 0.6-1.4 0.9-5.4 1.8-0.9 1.1 0.7-0.1 2.3-1.1 1.1-0.3h3l2.8-0.3 2.1 0.2 0.7-0.1 0.3-0.4-0.4-1.1 0.5-0.3h0.4l0.5 0.2 0.6 0.1h0.7l2-0.5 0.5-0.2 0.1-0.6 0.7-0.5 1.1-0.7 1.3-1.8 0.8-0.4 0.2-0.3 0.3-0.1 0.5 0.2 1.5 1.5 0.1 0.4v0.5 0.3l0.8 0.4 0.1 0.5-0.1 0.8 0.1 1 1.9 2.4 0.1 0.3 0.1 0.2-1.2 1.7-0.7 0.3-0.9 0.3-1 0.1-0.8-0.4-0.6 0.3-2.6-0.3-0.8 0.3-0.4 0.5-0.1 0.5 0.4 0.3 0.2 0.2 1.2 3.4 0.4 0.2h0.1 0.3l0.6-0.1 0.6-0.2 1.6-0.8 0.7-0.2 0.4 0.1 0.3 0.3 0.3 0.2 0.4-0.1 0.4-0.1 0.4-0.1 0.5 0.1 0.3 0.7 0.4 0.2 0.3-0.2 0.4-0.6v-0.3l-0.2-0.5 0.3-0.7 0.2-0.3 0.3-0.2v-0.4l-0.3-0.8 0.1-0.5 0.6-0.4 1.9-0.2 1.7-0.8 0.9 0.2 2.2 1.1 0.2 0.1 0.2-0.2 0.5-0.5 0.4-0.1 0.3 0.2 0.5 0.2 0.2 0.2 0.9 0.1 4.2 2.6 1.4 1.1 0.7 0.4 0.7 0.4 0.6 0.3 0.2 0.6-0.1 0.4-0.3 0.2-0.3 0.2-0.2 0.2-0.4 2.3-0.2 0.9-0.2 0.9 0.3 0.9h0.3l0.4-1.1 0.3-0.4 0.3-0.4 0.2-0.4-0.1-1.1 0.2-0.5 1.1-0.8h0.9l0.8 0.7 2 2.3 0.8 0.8 0.7 0.3 1.1 0.2 0.8 0.6 0.6 0.8 0.2 1 0.4-0.3 0.1-0.1 0.1-0.3v-0.5l2 1.6 0.7 0.2 0.9 0.4 0.7 0.9 0.2 0.8-0.8 0.5 0.4 0.3 0.8 0.3h0.6l0.5-0.4 0.1-0.5-0.3-0.5v-0.3l0.5-0.4 1.1 0.1 1.9 1 1.2 0.1 3.4-1.5 1-0.2 0.7 0.3 0.5 0.6 1 1.3 0.9 0.9 0.5 0.6 0.1 0.7-0.1 0.9-0.4 1.5-0.1 0.7 0.2 1.9-0.1 1.1-0.9 0.8-2 2.2-1.7 0.9-7.7 2.8-7.7 2.3-1.6 0.9-1 0.5-0.9 0.2-1 0.1-0.6-0.1-1.3-0.6-1.2-0.2-0.8-0.3-0.6 0.1-0.5 0.1-1.3 1-0.9 0.6h-0.3l-0.6-0.4-0.3-0.3-0.7-1.3-1.4-1.7-1.4-0.7-0.8-0.2-0.4 0.2-0.4-0.2-0.9 0.7-1.3 1.1-0.3-0.3-0.2 0.2-0.1 0.4 0.1 0.6-1.6-0.5-1.6 0.9-2.3 2.7-0.8 0.5-0.2 0.3-0.2 0.5 0.1 0.5 0.2 0.2 0.2 0.1 1.1 0.6 0.3 0.3 0.3 0.4 0.4 1.2 1 1.6 1.2 1.3 1.2 1.2 1.5 1.1 0.5 0.4 0.4 0.3 0.4 0.2h0.4l0.8 0.1 0.4 0.1 0.2 0.2 0.3 0.9 0.2 0.2 0.3 0.2 0.3 0.3 0.7 0.2 0.1-0.7 0.6-0.2 0.7 0.3 0.6 0.4 0.4 0.5 0.1 0.6-0.2 0.5-0.4 0.5-0.2 0.5 0.4 0.5 0.5 0.4 0.3 0.4 0.2 0.2 0.9-0.4 1.1-0.9 0.5 0.2 1.1 0.2 0.4 0.2-0.2 0.6 0.5 0.8 1.6 1.8 0.1 0.2-0.4 0.5-0.4 0.3-0.4-0.1-0.4-0.2-0.7-0.1 0.2 0.6-0.2 0.7-0.4 0.5-0.4 0.5-0.6 0.4-0.6 0.2-1.7-0.1-0.7 0.1-1.3 0.4-0.9 0.1h-1.8l-1-0.1-0.6-0.5-0.5 0.7-0.3 0.2-3.8 1.1-3.4 0.4-1 0.2-5.5 2.8-0.9 0.1-2.7-0.8-0.7-0.1-0.4-0.2-1.7-1.5-0.6-0.4-0.4-0.1h-0.3l-0.1-0.2-0.3-0.8-0.2-0.2-0.5-0.1-1.4-0.5-1-0.2-0.4-0.1-0.9-0.7-0.5-0.7-0.3-0.8-0.7-0.8-0.7 0.1-0.9 0.5-0.8 0.8-0.4 0.4 0.2 0.4 0.8 0.5 0.2 0.5v1.7l0.2 0.4 0.6 0.7v0.4l-0.1 0.6-0.4 0.3-0.8 0.6-0.4 0.3-0.2 0.4-0.2 0.3-0.1 0.3 0.2 0.2 0.7 0.7 0.3 0.4-0.5-0.1-0.4 0.1-1.7 0.7-0.3-0.4-0.7-0.2-1.1 0.1h-0.8l-1.3-0.3-1.2-0.3-1-0.6-2.3-2.5-3.5-1.8-1.5-1-0.4-0.5-0.2-0.4-0.3-0.2-0.6-0.1-0.5 0.1-0.7 0.6-0.4 0.2-7.7 0.2-2.3-0.7h-1.8l-3.3 0.7-1.6-0.4-1.5-1.1-0.8-0.1-1.3 1.1-0.7 0.3h-0.9l-1-0.5-1.1 0.6h-0.6l-1.9-2.7h-0.4l-0.3 0.4-0.9 0.9-0.3 0.6v0.5l0.2 0.3 0.1 0.2-0.3 0.4-0.8 0.2-0.4-0.2h-0.5l-1 1-0.4 0.2-0.5-0.1-0.3-0.2-1.1-1.8-0.2-0.5-0.2-0.2-0.3-0.1h-0.2-0.3l-1.2-1.1-1 0.2-1.1 0.6-1.3 0.3h-0.5l-1.9-0.6h-0.9-0.5l-0.4-0.3-0.4 0.9-0.4 0.5-0.3 0.4-0.8 0.4-2 2-0.6 0.3-0.7-0.3-0.4-0.4-0.2-0.7-0.2-0.7-0.3-0.3-0.5-0.3-1-0.4-1.7-0.1-0.9-0.2-0.4-0.6-0.2-0.7-0.3-0.4-0.6 0.1-0.5 0.6-0.4 1.3v1.4l-0.2 1.2-1.6 1.4-0.1 0.5-0.3 0.5-0.5 0.2-0.5-0.3-0.2-0.4h-0.3l-1.8 1.6-0.3 0.3-0.2 0.3-0.9 0.3-0.4 0.3zm95-0.4h-2.4-2.9-1.9l-1.4-0.3-0.3-0.2-2.2-1.9-0.1-0.6 0.2-0.5 0.8-0.6 0.9-0.3 0.7-0.2h0.7l1.5 0.5 0.8 0.1 0.4 0.2 0.5 0.5 0.5 0.9 0.4 0.4 0.3 0.2 0.5 0.1 0.5 0.1 2 0.6 0.2 0.4zm13-71.4l0.6 0.2 0.1 0.4-0.2 0.4-0.5 0.2h-0.3l-0.7 0.3h-0.3-0.2l-0.4-0.1-0.4-0.2v-0.3l0.2-0.4 0.5-0.3 0.5-0.1zm21.3 57.3l0.9 0.2 0.5 0.7-0.2 0.6-1 0.2h-1.5l-0.6 0.6h-0.3l-0.2-0.1v-0.2l-0.1-0.9-0.2-0.1-0.5-0.5-0.2-0.2-0.1-0.4 0.2-0.1h0.4 0.1l0.6-0.1zm-9.1-6.5l0.6-0.7h1.1l1.1 0.4 1 0.5v0.3h-0.7l-0.3 0.3-0.2 0.5 0.1 0.7-0.8-0.8-0.3-0.1-0.2 0.1-0.2 0.5-0.2 0.3-0.2-0.2-0.7-0.5-0.7-0.3-0.6-0.2h-0.6l-0.1-0.1-0.4-0.4-0.2-0.1-1.4-0.2-2.9-0.9v-0.3h3.3l0.5-0.2 0.2-0.2 0.3-0.3 0.3-0.2 0.8 0.2 0.4 0.5 0.3 0.7zm-43.5-89l1 1.3 0.7 1.3-0.2 1.2-1.5 1.4-1.1 0.3h-1.3l-1.3-0.2-1-0.4-0.5-0.2-0.1-0.4 0.1-0.4 0.4-0.2 0.4-0.2 2.1-0.1 0.7-0.2 0.5-0.4 0.2-0.7-0.4-0.3-1.5-0.1-0.1-0.6 0.4-0.5 1.7-0.2zm-19.5-24.8l0.6 0.5 0.2 1v1.1l-0.5 0.5-0.7-0.7-0.7 0.4-0.2 0.7 0.4 0.8-4 1 0.2 0.3 0.4 0.3 0.3 0.3-0.3 0.4-0.4 0.2h-0.5-0.6l-0.5-0.2 2-3.8 0.6-0.2 1.5-0.4 0.5-0.3zm7.1 0.6l3.1-0.6 1 0.3 0.5 0.7 0.1 1-0.5 3.3-0.4 1.3-0.7 0.8-0.7-0.4-0.8 0.3-2.5 0.4-0.4 0.3-0.3 0.3-1.1 0.4-0.4 0.3-0.3 0.5-0.2 0.5-0.1 0.3-0.5 0.4-0.4-1-0.2-3.2 0.2-0.7 0.1-0.3-0.1-1.8 0.2-0.5 0.3-0.2 0.6-0.2 0.4-0.2 1.1-1 0.9-0.7 0.5-0.2z"/>
	<path fill-rule="evenodd" class="s2" d="m0 0z"/>
	<path fill-rule="evenodd" class="s2" d="m0 0z"/>
	<path class="s3" d="m126.7 167.2c-1.5 0-2.9 0.8-4.1 1.7-1.3 1.2-2.2 3.1-2 5 0 1.6 0.7 3.1 1.5 4.5 1.3 2.4 2.8 4.7 3.6 7.2 0.4 1.4 0.8 2.7 1.3 4 0.1 0.2 0.2-0.1 0.2-0.2 0.9-2.8 1.8-5.6 3.3-8.2 0.9-1.8 2.1-3.5 2.8-5.5 0.5-1.7 0.3-3.6-0.6-5.2-1.1-1.8-3-3-5.1-3.3q-0.5 0-0.9 0z"/>
	<path class="s3" d="m114.2 165.8c-1.6 0-3 0.8-4.1 1.7-1.4 1.2-2.3 3.1-2.1 5 0 1.6 0.8 3.1 1.5 4.5 1.4 2.4 2.8 4.7 3.6 7.2 0.5 1.4 0.9 2.7 1.3 4 0.2 0.2 0.3-0.1 0.3-0.2 0.8-2.8 1.8-5.6 3.2-8.2 1-1.8 2.2-3.5 2.8-5.5 0.5-1.7 0.4-3.6-0.6-5.2-1-1.8-3-3-5.1-3.3q-0.4 0-0.9 0z"/>
	<path class="s3" d="m139.3 167.9c-1.6 0-3 0.8-4.1 1.7-1.4 1.2-2.2 3.1-2.1 5 0 1.6 0.8 3.1 1.6 4.5 1.3 2.4 2.7 4.7 3.5 7.2 0.5 1.3 0.9 2.7 1.3 4 0.2 0.2 0.3-0.1 0.3-0.2 0.8-2.8 1.8-5.6 3.2-8.2 1-1.8 2.2-3.5 2.8-5.5 0.5-1.7 0.4-3.6-0.6-5.2-1-1.8-3-3-5.1-3.3q-0.4 0-0.9 0z"/>
	<path class="s3" d="m118.3 174.2c-1.5 0-2.9 0.7-4 1.7-1.4 1.2-2.3 3.1-2.1 5 0 1.6 0.8 3.1 1.5 4.5 1.3 2.3 2.8 4.6 3.6 7.2 0.5 1.3 0.9 2.7 1.3 4 0.1 0.2 0.3-0.1 0.3-0.2 0.8-2.8 1.7-5.7 3.2-8.2 1-1.8 2.2-3.5 2.8-5.5 0.5-1.7 0.4-3.7-0.6-5.2-1.1-1.8-3-3.1-5.1-3.3q-0.5 0-0.9 0z"/>
	<path class="s3" d="m130.9 170c-1.5 0-2.9 0.7-4.1 1.7-1.4 1.2-2.2 3.1-2.1 5 0 1.6 0.8 3.1 1.6 4.5 1.3 2.4 2.7 4.7 3.6 7.2 0.4 1.3 0.8 2.7 1.3 4 0.1 0.2 0.2-0.1 0.2-0.2 0.8-2.8 1.8-5.6 3.3-8.2 0.9-1.8 2.1-3.5 2.8-5.5 0.5-1.7 0.3-3.6-0.6-5.2-1.1-1.8-3.1-3.1-5.2-3.3q-0.4 0-0.9 0z"/>
	<path class="s3" d="m126.7 161.6c-1.5 0-2.9 0.8-4.1 1.7-1.3 1.3-2.2 3.1-2 5 0 1.6 0.7 3.1 1.5 4.5 1.3 2.4 2.8 4.7 3.6 7.3 0.4 1.3 0.8 2.6 1.3 3.9 0.1 0.2 0.2-0.1 0.2-0.2 0.9-2.8 1.8-5.6 3.3-8.2 0.9-1.8 2.1-3.5 2.8-5.5 0.5-1.7 0.3-3.6-0.6-5.2-1.1-1.8-3-3-5.1-3.3q-0.5 0-0.9 0z"/>
	<path fill-rule="evenodd" class="s2" d="m0 0z"/>
</svg>