<svg xmlns="http://www.w3.org/2000/svg" version="1.1" viewBox="0 0 800 800" width="800" height="800"><g stroke-width="2" fill="none" stroke-linecap="butt" stroke="#ffffff" data-c-stroke="c7dfe2" stroke-opacity="1"><path d="M567.53 397.4C563.77 397.18 562.34 394.75 562.39 391.25Q562.46 385.83 562.49 376.26 562.51 369.8 563.91 367.73C569.68 359.23 587.59 370.35 587.55 356.76Q587.53 349 587.51 338.22 587.49 332.08 582.83 328.17 535.89 288.78 506.39 263.36 442.95 208.69 411 181.39 407.22 178.17 405.12 177.22C396.66 173.42 390.99 178.62 385.07 183.73Q338.52 223.84 215.04 328.54C211.57 331.48 211.6 336.01 211.77 340.75 211.99 347.01 212.32 351.82 212.35 357.08Q212.58 403 212.39 430.75 212.35 436.22 212.3 441.75 212.01 469.17 212.05 558C212.06 565.58 213.78 571.98 221.11 574.56 223.68 575.46 227.95 575.4 230.73 575.38Q252.74 575.22 284.34 575.1 290.07 575.08 292.06 570.99 293.17 568.72 293.17 561.86 293.12 523.82 293.15 350.25 293.16 340.88 302.79 340.87 368.15 340.83 424.39 340.84 429.43 340.84 430.64 341.34C436.08 343.59 437.08 347.92 436.96 354.16Q436.84 360.38 437.04 373.22 437.15 380.44 435.63 383.11 433.17 387.41 426.96 387.42 370.21 387.49 359.76 387.46 355.28 387.45 352.75 388.49C347.83 390.5 348.04 394.18 348.01 399.52Q347.96 409.07 348.02 418.75C348.07 425.37 349.78 430.13 357.26 430.27Q362.57 430.37 400.59 430.27 405.1 430.26 406.92 430.97C412.67 433.23 413.17 437.25 413.12 443.96Q413.02 455.02 413.12 465.76 413.19 472.43 408.44 475.45 406.05 476.97 398.79 476.91 378.55 476.76 356.77 476.66 351.42 476.64 348.82 481.77C347.82 483.75 348.08 488.06 348.08 490Q348.1 522.23 347.95 565.63C347.93 572.16 353.19 575.38 359 575.15Q367.22 574.82 406.98 575.59 429.47 576.02 572.02 575.8C580.12 575.79 587.07 569.97 587.04 561.74 586.94 534.39 586.82 496.6 587.28 461.1Q587.68 430.62 587.07 402.95C586.99 399.22 584.52 397.47 580.68 397.52Q571.72 397.64 567.53 397.4M577.0499 238.6823A8.35 8.35 0 0 0 568.7584 230.2743L561.8986 230.2264A8.35 8.35 0 0 0 553.4905 238.5179L553.4301 247.1777A8.35 8.35 0 0 0 561.7216 255.5857L568.5814 255.6336A8.35 8.35 0 0 0 576.9895 247.3421L577.0499 238.6823M531.1841 238.5367A7.09 7.09 0 0 0 524.1065 231.4343L519.1665 231.4257A7.09 7.09 0 0 0 512.0641 238.5033L512.0559 243.1833A7.09 7.09 0 0 0 519.1335 250.2857L524.0735 250.2943A7.09 7.09 0 0 0 531.1759 243.2167L531.1841 238.5367M604.0558 285.7177A9.51 9.51 0 0 0 594.3163 276.4429L585.199 276.6657A9.51 9.51 0 0 0 575.9242 286.4052L576.1642 296.2223A9.51 9.51 0 0 0 585.9037 305.4971L595.021 305.2743A9.51 9.51 0 0 0 604.2958 295.5348L604.0558 285.7177"/><path d="M499.534 296.9061A6.63 6.63 0 0 0 492.9388 290.2415L480.979 290.1789A6.63 6.63 0 0 0 474.3144 296.7741L474.246 309.8339A6.63 6.63 0 0 0 480.8412 316.4985L492.801 316.5611A6.63 6.63 0 0 0 499.4656 309.9659L499.534 296.9061M544.36 341.13A6.84 6.84 0 0 0 537.52 334.29L524.96 334.29A6.84 6.84 0 0 0 518.12 341.13L518.12 356.25A6.84 6.84 0 0 0 524.96 363.09L537.52 363.09A6.84 6.84 0 0 0 544.36 356.25L544.36 341.13M508.56 392.54 487.76 392.62A6.17 6.17 0 0 0 481.61 398.81L481.68 419.33A7.77 7.63 89.8 0 0 489.34 427.07L507.22 427.01A7.77 7.63 89.8 0 0 514.82 419.21L514.75 398.69A6.17 6.17 0 0 0 508.56 392.54M565.923 434.8847A7.28 7.28 0 0 0 558.6557 427.592L544.9758 427.5681A7.28 7.28 0 0 0 537.6831 434.8354L537.657 449.7753A7.28 7.28 0 0 0 544.9243 457.068L558.6042 457.0919A7.28 7.28 0 0 0 565.8969 449.8246L565.923 434.8847M488.0104 489.7004A7.31 7.31 0 0 0 480.6622 482.4287L449.5027 482.5919A7.31 7.31 0 0 0 442.231 489.9401L442.3896 520.2196A7.31 7.31 0 0 0 449.7378 527.4913L480.8973 527.3281A7.31 7.31 0 0 0 488.169 519.9799L488.0104 489.7004"/></g><path fill="#ffffff" d="M 800.00 0.00 L 800.00 800.00 L 0.00 800.00 L 0.00 0.00 L 800.00 0.00 Z M 567.53 397.40 C 563.77 397.18 562.34 394.75 562.39 391.25 Q 562.46 385.83 562.49 376.26 Q 562.51 369.80 563.91 367.73 C 569.68 359.23 587.59 370.35 587.55 356.76 Q 587.53 349.00 587.51 338.22 Q 587.49 332.08 582.83 328.17 Q 535.89 288.78 506.39 263.36 Q 442.95 208.69 411.00 181.39 Q 407.22 178.17 405.12 177.22 C 396.66 173.42 390.99 178.62 385.07 183.73 Q 338.52 223.84 215.04 328.54 C 211.57 331.48 211.60 336.01 211.77 340.75 C 211.99 347.01 212.32 351.82 212.35 357.08 Q 212.58 403.00 212.39 430.75 Q 212.35 436.22 212.30 441.75 Q 212.01 469.17 212.05 558.00 C 212.06 565.58 213.78 571.98 221.11 574.56 C 223.68 575.46 227.95 575.40 230.73 575.38 Q 252.74 575.22 284.34 575.10 Q 290.07 575.08 292.06 570.99 Q 293.17 568.72 293.17 561.86 Q 293.12 523.82 293.15 350.25 Q 293.16 340.88 302.79 340.87 Q 368.15 340.83 424.39 340.84 Q 429.43 340.84 430.64 341.34 C 436.08 343.59 437.08 347.92 436.96 354.16 Q 436.84 360.38 437.04 373.22 Q 437.15 380.44 435.63 383.11 Q 433.17 387.41 426.96 387.42 Q 370.21 387.49 359.76 387.46 Q 355.28 387.45 352.75 388.49 C 347.83 390.50 348.04 394.18 348.01 399.52 Q 347.96 409.07 348.02 418.75 C 348.07 425.37 349.78 430.13 357.26 430.27 Q 362.57 430.37 400.59 430.27 Q 405.10 430.26 406.92 430.97 C 412.67 433.23 413.17 437.25 413.12 443.96 Q 413.02 455.02 413.12 465.76 Q 413.19 472.43 408.44 475.45 Q 406.05 476.97 398.79 476.91 Q 378.55 476.76 356.77 476.66 Q 351.42 476.64 348.82 481.77 C 347.82 483.75 348.08 488.06 348.08 490.00 Q 348.10 522.23 347.95 565.63 C 347.93 572.16 353.19 575.38 359.00 575.15 Q 367.22 574.82 406.98 575.59 Q 429.47 576.02 572.02 575.80 C 580.12 575.79 587.07 569.97 587.04 561.74 C 586.94 534.39 586.82 496.60 587.28 461.10 Q 587.68 430.62 587.07 402.95 C 586.99 399.22 584.52 397.47 580.68 397.52 Q 571.72 397.64 567.53 397.40 Z M 577.0499 238.6823 A 8.35 8.35 0.0 0 0 568.7584 230.2743 L 561.8986 230.2264 A 8.35 8.35 0.0 0 0 553.4905 238.5179 L 553.4301 247.1777 A 8.35 8.35 0.0 0 0 561.7216 255.5857 L 568.5814 255.6336 A 8.35 8.35 0.0 0 0 576.9895 247.3421 L 577.0499 238.6823 Z M 531.1841 238.5367 A 7.09 7.09 0.0 0 0 524.1065 231.4343 L 519.1665 231.4257 A 7.09 7.09 0.0 0 0 512.0641 238.5033 L 512.0559 243.1833 A 7.09 7.09 0.0 0 0 519.1335 250.2857 L 524.0735 250.2943 A 7.09 7.09 0.0 0 0 531.1759 243.2167 L 531.1841 238.5367 Z M 604.0558 285.7177 A 9.51 9.51 0.0 0 0 594.3163 276.4429 L 585.1990 276.6657 A 9.51 9.51 0.0 0 0 575.9242 286.4052 L 576.1642 296.2223 A 9.51 9.51 0.0 0 0 585.9037 305.4971 L 595.0210 305.2743 A 9.51 9.51 0.0 0 0 604.2958 295.5348 L 604.0558 285.7177 Z" data-c-fill="fff9ed" fill-opacity="1"/><path fill="#8ec5d6" d="M 562.39 391.25 C 562.34 394.75 563.77 397.18 567.53 397.40 Q 571.72 397.64 580.68 397.52 C 584.52 397.47 586.99 399.22 587.07 402.95 Q 587.68 430.62 587.28 461.10 C 586.82 496.60 586.94 534.39 587.04 561.74 C 587.07 569.97 580.12 575.79 572.02 575.80 Q 429.47 576.02 406.98 575.59 Q 367.22 574.82 359.00 575.15 C 353.19 575.38 347.93 572.16 347.95 565.63 Q 348.10 522.23 348.08 490.00 C 348.08 488.06 347.82 483.75 348.82 481.77 Q 351.42 476.64 356.77 476.66 Q 378.55 476.76 398.79 476.91 Q 406.05 476.97 408.44 475.45 Q 413.19 472.43 413.12 465.76 Q 413.02 455.02 413.12 443.96 C 413.17 437.25 412.67 433.23 406.92 430.97 Q 405.10 430.26 400.59 430.27 Q 362.57 430.37 357.26 430.27 C 349.78 430.13 348.07 425.37 348.02 418.75 Q 347.96 409.07 348.01 399.52 C 348.04 394.18 347.83 390.50 352.75 388.49 Q 355.28 387.45 359.76 387.46 Q 370.21 387.49 426.96 387.42 Q 433.17 387.41 435.63 383.11 Q 437.15 380.44 437.04 373.22 Q 436.84 360.38 436.96 354.16 C 437.08 347.92 436.08 343.59 430.64 341.34 Q 429.43 340.84 424.39 340.84 Q 368.15 340.83 302.79 340.87 Q 293.16 340.88 293.15 350.25 Q 293.12 523.82 293.17 561.86 Q 293.17 568.72 292.06 570.99 Q 290.07 575.08 284.34 575.10 Q 252.74 575.22 230.73 575.38 C 227.95 575.40 223.68 575.46 221.11 574.56 C 213.78 571.98 212.06 565.58 212.05 558.00 Q 212.01 469.17 212.30 441.75 Q 212.35 436.22 212.39 430.75 Q 212.58 403.00 212.35 357.08 C 212.32 351.82 211.99 347.01 211.77 340.75 C 211.60 336.01 211.57 331.48 215.04 328.54 Q 338.52 223.84 385.07 183.73 C 390.99 178.62 396.66 173.42 405.12 177.22 Q 407.22 178.17 411.00 181.39 Q 442.95 208.69 506.39 263.36 Q 535.89 288.78 582.83 328.17 Q 587.49 332.08 587.51 338.22 Q 587.53 349.00 587.55 356.76 C 587.59 370.35 569.68 359.23 563.91 367.73 Q 562.51 369.80 562.49 376.26 Q 562.46 385.83 562.39 391.25 Z M 499.5340 296.9061 A 6.63 6.63 0.0 0 0 492.9388 290.2415 L 480.9790 290.1789 A 6.63 6.63 0.0 0 0 474.3144 296.7741 L 474.2460 309.8339 A 6.63 6.63 0.0 0 0 480.8412 316.4985 L 492.8010 316.5611 A 6.63 6.63 0.0 0 0 499.4656 309.9659 L 499.5340 296.9061 Z M 544.36 341.13 A 6.84 6.84 0.0 0 0 537.52 334.29 L 524.96 334.29 A 6.84 6.84 0.0 0 0 518.12 341.13 L 518.12 356.25 A 6.84 6.84 0.0 0 0 524.96 363.09 L 537.52 363.09 A 6.84 6.84 0.0 0 0 544.36 356.25 L 544.36 341.13 Z M 508.56 392.54 L 487.76 392.62 A 6.17 6.17 0.0 0 0 481.61 398.81 L 481.68 419.33 A 7.77 7.63 89.8 0 0 489.34 427.07 L 507.22 427.01 A 7.77 7.63 89.8 0 0 514.82 419.21 L 514.75 398.69 A 6.17 6.17 0.0 0 0 508.56 392.54 Z M 565.9230 434.8847 A 7.28 7.28 0.0 0 0 558.6557 427.5920 L 544.9758 427.5681 A 7.28 7.28 0.0 0 0 537.6831 434.8354 L 537.6570 449.7753 A 7.28 7.28 0.0 0 0 544.9243 457.0680 L 558.6042 457.0919 A 7.28 7.28 0.0 0 0 565.8969 449.8246 L 565.9230 434.8847 Z M 488.0104 489.7004 A 7.31 7.31 0.0 0 0 480.6622 482.4287 L 449.5027 482.5919 A 7.31 7.31 0.0 0 0 442.2310 489.9401 L 442.3896 520.2196 A 7.31 7.31 0.0 0 0 449.7378 527.4913 L 480.8973 527.3281 A 7.31 7.31 0.0 0 0 488.1690 519.9799 L 488.0104 489.7004 Z" data-c-fill="8ec5d6"/><rect fill="#8ec5d6" x="-11.78" y="-12.68" transform="rotate(.4 -34514.398 81085.802)" width="23.56" height="25.36" rx="8.35" data-c-fill="8ec5d6"/><rect fill="#8ec5d6" x="-9.56" y="-9.43" transform="rotate(.1 -137741.77 298986.6)" width="19.12" height="18.86" rx="7.09" data-c-fill="8ec5d6"/><rect fill="#8ec5d6" x="-14.07" y="-14.42" transform="rotate(-1.4 12202.572 -24003.894)" width="28.14" height="28.84" rx="9.51" data-c-fill="8ec5d6"/><rect fill="#ffffff" x="-12.61" y="-13.16" transform="rotate(.3 -57695.825 93140.613)" width="25.22" height="26.32" rx="6.63" data-c-fill="fff9ed" fill-opacity="1"/><rect fill="#ffffff" x="518.12" y="334.29" width="26.24" height="28.8" rx="6.84" data-c-fill="fff9ed" fill-opacity="1"/><path fill="#ffffff" d="M 508.56 392.54 A 6.17 6.17 0.0 0 1 514.75 398.69 L 514.82 419.21 A 7.77 7.63 89.8 0 1 507.22 427.01 L 489.34 427.07 A 7.77 7.63 89.8 0 1 481.68 419.33 L 481.61 398.81 A 6.17 6.17 0.0 0 1 487.76 392.62 L 508.56 392.54 Z" data-c-fill="fff9ed" fill-opacity="1"/><rect fill="#ffffff" x="-14.12" y="-14.75" transform="rotate(.1 -253160.462 316373.467)" width="28.24" height="29.5" rx="7.28" data-c-fill="fff9ed" fill-opacity="1"/><rect fill="#ffffff" x="-22.89" y="-22.45" transform="rotate(-.3 96672.636 -88593.972)" width="45.78" height="44.9" rx="7.31" data-c-fill="fff9ed" fill-opacity="1"/></svg>